<svg xmlns="http://www.w3.org/2000/svg" version="1.1" x="0" y="0" width="393" height="119" viewBox="0 0 393 119" enable-background="new 0 0 393 119" xml:space="preserve"><path fill="#FFFFFF" d="M157.066 93.848c0-0.633 0.228-1.171 0.683-1.614s1.159-0.665 2.112-0.665c0.719 0 1.406 0.168 2.062 0.504v1.102c-0.586-0.352-1.229-0.527-1.928-0.527 -1.211 0-1.816 0.4-1.816 1.201 0 0.215 0.106 0.402 0.319 0.562s0.476 0.288 0.788 0.384 0.654 0.22 1.025 0.372 0.713 0.314 1.025 0.486 0.574 0.424 0.785 0.756 0.316 0.719 0.316 1.16c0 0.688-0.256 1.225-0.768 1.611s-1.219 0.58-2.121 0.58c-0.801 0-1.594-0.195-2.379-0.586V98.02c0.742 0.449 1.502 0.674 2.279 0.674 1.246 0 1.871-0.375 1.875-1.125 0-0.32-0.105-0.594-0.316-0.82s-0.473-0.391-0.785-0.492l-1.031-0.346c-0.375-0.129-0.718-0.261-1.028-0.396s-0.571-0.345-0.782-0.63S157.066 94.254 157.066 93.848zM163.699 96.748c0-2.109 0.881-3.164 2.643-3.164 0.004 0 0.008 0 0.012 0 0.801 0 1.44 0.262 1.919 0.785s0.718 1.225 0.718 2.104c0 0.289-0.012 0.566-0.035 0.832h-4.125c0.133 1.016 0.695 1.523 1.688 1.523 0.809 0 1.498-0.148 2.068-0.445v0.996c-0.617 0.262-1.314 0.393-2.092 0.393 -0.012 0-0.023 0-0.035 0 -0.352 0-0.676-0.044-0.973-0.132s-0.587-0.233-0.87-0.437 -0.507-0.515-0.671-0.935S163.699 97.342 163.699 96.748zM164.812 96.309h3.076c-0.016-0.199-0.05-0.39-0.103-0.571s-0.133-0.366-0.24-0.554 -0.263-0.337-0.466-0.448 -0.445-0.167-0.727-0.167c-0.504 0-0.874 0.13-1.11 0.39S164.863 95.668 164.812 96.309zM170.332 99.666v-8.268h1.102v8.268H170.332zM172.945 94.639v-0.961h0.838v-0.287c0-1.488 0.664-2.232 1.992-2.232 0.223 0 0.439 0.027 0.65 0.082v0.949c-0.16-0.031-0.309-0.047-0.445-0.047 -0.184 0-0.323 0.008-0.419 0.023s-0.206 0.06-0.331 0.132 -0.215 0.198-0.27 0.378 -0.082 0.418-0.082 0.715v0.287h1.547v0.961h-1.547v5.027h-1.096v-5.027H172.945zM177.369 96.561v-0.938h3.656v0.938H177.369zM182.583 95.371c0-0.496 0.177-0.918 0.53-1.266s0.894-0.521 1.62-0.521c0.543 0 1.078 0.131 1.605 0.393v0.949c-0.52-0.238-1.01-0.357-1.471-0.357 -0.793 0-1.189 0.256-1.189 0.768 0 0.168 0.105 0.308 0.316 0.419s0.465 0.209 0.762 0.293 0.595 0.186 0.894 0.305 0.555 0.319 0.768 0.601 0.319 0.629 0.319 1.043c0 0.48-0.182 0.895-0.545 1.242s-0.926 0.521-1.688 0.521c-0.641 0-1.217-0.139-1.729-0.416v-0.996c0.52 0.293 1.072 0.439 1.658 0.439 0.008 0 0.016 0 0.023 0 0.383 0 0.675-0.069 0.876-0.208s0.302-0.315 0.302-0.53c0-0.246-0.104-0.444-0.313-0.595s-0.464-0.268-0.765-0.352 -0.601-0.178-0.899-0.281 -0.553-0.275-0.762-0.516S182.583 95.754 182.583 95.371zM187.886 96.748c0-2.109 0.881-3.164 2.643-3.164 0.004 0 0.008 0 0.012 0 0.801 0 1.44 0.262 1.919 0.785s0.718 1.225 0.718 2.104c0 0.289-0.012 0.566-0.035 0.832h-4.125c0.133 1.016 0.695 1.523 1.688 1.523 0.809 0 1.498-0.148 2.068-0.445v0.996c-0.617 0.262-1.314 0.393-2.092 0.393 -0.012 0-0.023 0-0.035 0 -0.352 0-0.676-0.044-0.973-0.132s-0.587-0.233-0.87-0.437 -0.507-0.515-0.671-0.935S187.886 97.342 187.886 96.748zM189 96.309h3.076c-0.016-0.199-0.05-0.39-0.103-0.571s-0.133-0.366-0.24-0.554 -0.263-0.337-0.466-0.448 -0.445-0.167-0.727-0.167c-0.504 0-0.874 0.13-1.11 0.39S189.05 95.668 189 96.309zM194.589 99.666v-5.484c1-0.398 1.973-0.598 2.918-0.598v1.008c-0.594 0.008-1.199 0.092-1.816 0.252v4.822H194.589zM198.451 93.678h1.172l1.682 4.67 1.693-4.67h1.172l-2.303 5.988h-1.125L198.451 93.678zM205.007 96.748c0-2.109 0.881-3.164 2.643-3.164 0.004 0 0.008 0 0.012 0 0.801 0 1.44 0.262 1.919 0.785s0.718 1.225 0.718 2.104c0 0.289-0.012 0.566-0.035 0.832h-4.125c0.133 1.016 0.695 1.523 1.688 1.523 0.809 0 1.498-0.148 2.068-0.445v0.996c-0.617 0.262-1.314 0.393-2.092 0.393 -0.012 0-0.023 0-0.035 0 -0.352 0-0.676-0.044-0.973-0.132s-0.587-0.233-0.87-0.437 -0.507-0.515-0.671-0.935S205.007 97.342 205.007 96.748zM206.121 96.309h3.076c-0.016-0.199-0.05-0.39-0.103-0.571s-0.133-0.366-0.24-0.554 -0.263-0.337-0.466-0.448 -0.445-0.167-0.727-0.167c-0.504 0-0.874 0.13-1.11 0.39S206.171 95.668 206.121 96.309zM215.718 96.748c0-2.109 0.881-3.164 2.643-3.164 0.004 0 0.008 0 0.012 0 0.801 0 1.44 0.262 1.919 0.785s0.718 1.225 0.718 2.104c0 0.289-0.012 0.566-0.035 0.832h-4.125c0.133 1.016 0.695 1.523 1.688 1.523 0.809 0 1.498-0.148 2.068-0.445v0.996c-0.617 0.262-1.314 0.393-2.092 0.393 -0.012 0-0.023 0-0.035 0 -0.352 0-0.676-0.044-0.973-0.132s-0.587-0.233-0.87-0.437 -0.507-0.515-0.671-0.935S215.718 97.342 215.718 96.748zM216.832 96.309h3.076c-0.016-0.199-0.05-0.39-0.103-0.571s-0.133-0.366-0.24-0.554 -0.263-0.337-0.466-0.448 -0.445-0.167-0.727-0.167c-0.504 0-0.874 0.13-1.11 0.39S216.882 95.668 216.832 96.309zM222.457 99.666v-5.473c0.832-0.414 1.684-0.621 2.555-0.621 0.754 0 1.345 0.197 1.772 0.592s0.642 0.941 0.642 1.641v3.861h-1.107v-3.938c0-0.352-0.09-0.629-0.27-0.832s-0.541-0.305-1.084-0.305c-0.488 0-0.957 0.072-1.406 0.217v4.857H222.457zM228.492 94.604v-0.926h1.043v-1.787h1.096v1.787h1.594v0.926h-1.594v3.48c0 0.469 0.295 0.703 0.885 0.703 0.004 0 0.008 0 0.012 0 0.273 0 0.506-0.059 0.697-0.176v0.984c-0.273 0.109-0.547 0.164-0.82 0.164 -0.008 0-0.018 0-0.029 0 -0.145 0-0.299-0.018-0.463-0.053s-0.36-0.104-0.589-0.208 -0.417-0.283-0.565-0.539 -0.223-0.573-0.223-0.952v-3.404H228.492zM233.296 96.748c0-2.109 0.881-3.164 2.643-3.164 0.004 0 0.008 0 0.012 0 0.801 0 1.44 0.262 1.919 0.785s0.718 1.225 0.718 2.104c0 0.289-0.012 0.566-0.035 0.832h-4.125c0.133 1.016 0.695 1.523 1.688 1.523 0.809 0 1.498-0.148 2.068-0.445v0.996c-0.617 0.262-1.314 0.393-2.092 0.393 -0.012 0-0.023 0-0.035 0 -0.352 0-0.676-0.044-0.973-0.132s-0.587-0.233-0.87-0.437 -0.507-0.515-0.671-0.935S233.296 97.342 233.296 96.748zM234.41 96.309h3.076c-0.016-0.199-0.05-0.39-0.103-0.571s-0.133-0.366-0.24-0.554 -0.263-0.337-0.466-0.448 -0.445-0.167-0.727-0.167c-0.504 0-0.874 0.13-1.11 0.39S234.46 95.668 234.41 96.309zM240 99.666v-5.484c1-0.398 1.973-0.598 2.918-0.598v1.008c-0.594 0.008-1.199 0.092-1.816 0.252v4.822H240zM244.019 101.945v-6.434c0-0.129 0.012-0.257 0.035-0.384s0.083-0.288 0.179-0.483 0.226-0.367 0.39-0.516 0.41-0.276 0.738-0.384 0.709-0.161 1.143-0.161c0.223 0 0.44 0.02 0.653 0.059s0.445 0.127 0.697 0.264 0.47 0.314 0.653 0.533 0.337 0.526 0.46 0.923 0.185 0.854 0.185 1.374c0 0.594-0.081 1.101-0.243 1.521s-0.386 0.731-0.671 0.935 -0.575 0.349-0.87 0.437 -0.62 0.132-0.976 0.132c-0.441 0-0.865-0.059-1.271-0.176v2.361H244.019zM245.121 98.535c0.414 0.16 0.838 0.24 1.271 0.24 0.246 0 0.456-0.023 0.63-0.07s0.345-0.137 0.513-0.27 0.296-0.341 0.384-0.624 0.132-0.642 0.132-1.075c0-0.465-0.044-0.851-0.132-1.157s-0.214-0.53-0.378-0.671 -0.326-0.236-0.486-0.287 -0.344-0.076-0.551-0.076c-0.922 0-1.383 0.299-1.383 0.896V98.535zM250.617 99.666v-5.484c1-0.398 1.973-0.598 2.918-0.598v1.008c-0.594 0.008-1.199 0.092-1.816 0.252v4.822H250.617zM254.753 92.752v-1.16h1.172v1.16H254.753zM254.789 99.666v-5.988h1.102v5.988H254.789zM257.478 95.371c0-0.496 0.177-0.918 0.53-1.266s0.894-0.521 1.62-0.521c0.543 0 1.078 0.131 1.605 0.393v0.949c-0.52-0.238-1.01-0.357-1.471-0.357 -0.793 0-1.189 0.256-1.189 0.768 0 0.168 0.105 0.308 0.316 0.419s0.465 0.209 0.762 0.293 0.595 0.186 0.894 0.305 0.555 0.319 0.768 0.601 0.319 0.629 0.319 1.043c0 0.48-0.182 0.895-0.545 1.242s-0.926 0.521-1.688 0.521c-0.641 0-1.217-0.139-1.729-0.416v-0.996c0.52 0.293 1.072 0.439 1.658 0.439 0.008 0 0.016 0 0.023 0 0.383 0 0.675-0.069 0.876-0.208s0.302-0.315 0.302-0.53c0-0.246-0.104-0.444-0.313-0.595s-0.464-0.268-0.765-0.352 -0.601-0.178-0.899-0.281 -0.553-0.275-0.762-0.516S257.478 95.754 257.478 95.371zM262.781 96.748c0-2.109 0.881-3.164 2.643-3.164 0.004 0 0.008 0 0.012 0 0.801 0 1.44 0.262 1.918 0.785s0.719 1.225 0.719 2.104c0 0.289-0.012 0.566-0.035 0.832h-4.125c0.133 1.016 0.695 1.523 1.688 1.523 0.809 0 1.499-0.148 2.069-0.445v0.996c-0.617 0.262-1.314 0.393-2.092 0.393 -0.012 0-0.023 0-0.035 0 -0.352 0-0.676-0.044-0.973-0.132s-0.587-0.233-0.87-0.437 -0.507-0.515-0.671-0.935S262.781 97.342 262.781 96.748zM263.894 96.309h3.077c-0.016-0.199-0.051-0.39-0.104-0.571s-0.133-0.366-0.24-0.554 -0.262-0.337-0.465-0.448c-0.204-0.111-0.446-0.167-0.727-0.167 -0.504 0-0.874 0.13-1.11 0.39S263.945 95.668 263.894 96.309zM273.41 97.779c0-0.594 0.25-1.058 0.75-1.392s1.189-0.501 2.068-0.501c0.375 0 0.738 0.023 1.09 0.07 -0.023-0.504-0.162-0.865-0.414-1.084s-0.664-0.328-1.238-0.328c-0.52 0-1.072 0.1-1.658 0.299v-0.938c0.566-0.215 1.17-0.322 1.811-0.322 0.832 0 1.475 0.216 1.928 0.647s0.68 1.052 0.68 1.86v1.729c0 0.129-0.014 0.257-0.039 0.384s-0.086 0.29-0.182 0.489 -0.225 0.373-0.389 0.521 -0.41 0.276-0.738 0.384 -0.707 0.161-1.137 0.161c-0.441 0-0.828-0.056-1.16-0.167s-0.582-0.241-0.75-0.39 -0.303-0.324-0.402-0.527 -0.16-0.371-0.184-0.504S273.41 97.908 273.41 97.779zM274.5 97.768c0 0.68 0.48 1.02 1.441 1.02 0.004 0 0.01 0 0.018 0 0.906 0 1.359-0.326 1.359-0.979v-0.973c-0.289-0.047-0.637-0.072-1.043-0.076 -0.16 0-0.328 0.015-0.504 0.044s-0.365 0.075-0.568 0.138 -0.371 0.166-0.504 0.311S274.5 97.568 274.5 97.768zM280.02 99.666v-5.473c0.832-0.414 1.684-0.621 2.555-0.621 0.754 0 1.344 0.197 1.771 0.592s0.643 0.941 0.643 1.641v3.861h-1.107v-3.938c0-0.352-0.09-0.629-0.27-0.832s-0.541-0.305-1.084-0.305c-0.488 0-0.957 0.072-1.406 0.217v4.857H280.02zM286.383 97.779c0-0.594 0.25-1.058 0.75-1.392s1.189-0.501 2.068-0.501c0.375 0 0.738 0.023 1.09 0.07 -0.023-0.504-0.162-0.865-0.414-1.084s-0.664-0.328-1.238-0.328c-0.52 0-1.072 0.1-1.658 0.299v-0.938c0.566-0.215 1.17-0.322 1.811-0.322 0.832 0 1.475 0.216 1.928 0.647s0.68 1.052 0.68 1.86v1.729c0 0.129-0.014 0.257-0.039 0.384s-0.086 0.29-0.182 0.489 -0.225 0.373-0.389 0.521 -0.41 0.276-0.738 0.384 -0.707 0.161-1.137 0.161c-0.441 0-0.828-0.056-1.16-0.167s-0.582-0.241-0.75-0.39 -0.303-0.324-0.402-0.527 -0.16-0.371-0.184-0.504S286.383 97.908 286.383 97.779zM287.473 97.768c0 0.68 0.48 1.02 1.441 1.02 0.004 0 0.01 0 0.018 0 0.906 0 1.359-0.326 1.359-0.979v-0.973c-0.289-0.047-0.637-0.072-1.043-0.076 -0.16 0-0.328 0.015-0.504 0.044s-0.365 0.075-0.568 0.138 -0.371 0.166-0.504 0.311S287.473 97.568 287.473 97.768zM293.051 99.666v-8.268h1.102v8.268H293.051zM295.459 93.678h1.178l1.611 4.488 1.582-4.488h1.178l-2.461 6.627c-0.426 1.148-1.045 1.723-1.857 1.723h-0.006c-0.266 0-0.545-0.031-0.838-0.094v-0.984c0.238 0.062 0.463 0.096 0.674 0.1 0.496 0 0.896-0.461 1.201-1.383L295.459 93.678zM301.834 94.604v-0.926h1.043v-1.787h1.096v1.787h1.594v0.926h-1.594v3.48c0 0.469 0.295 0.703 0.885 0.703 0.004 0 0.008 0 0.012 0 0.273 0 0.506-0.059 0.697-0.176v0.984c-0.273 0.109-0.547 0.164-0.82 0.164 -0.008 0-0.018 0-0.029 0 -0.145 0-0.299-0.018-0.463-0.053s-0.361-0.104-0.59-0.208 -0.416-0.283-0.564-0.539 -0.223-0.573-0.223-0.952v-3.404H301.834zM307.014 92.752v-1.16h1.172v1.16H307.014zM307.049 99.666v-5.988h1.102v5.988H307.049zM310.447 98.963c-0.484-0.531-0.727-1.297-0.727-2.297s0.242-1.764 0.727-2.291 1.182-0.791 2.092-0.791c0.609 0 1.197 0.111 1.764 0.334v1.043c-0.543-0.262-1.092-0.393-1.646-0.393 -0.008 0-0.016 0-0.023 0 -0.551 0-0.982 0.142-1.295 0.425s-0.469 0.841-0.469 1.673c0 0.441 0.045 0.808 0.137 1.099s0.229 0.507 0.41 0.647 0.365 0.234 0.551 0.281 0.408 0.07 0.666 0.07c0.574 0 1.131-0.127 1.67-0.381v1.043c-0.566 0.223-1.154 0.334-1.764 0.334C311.629 99.76 310.932 99.494 310.447 98.963zM315.281 95.371c0-0.496 0.176-0.918 0.529-1.266s0.895-0.521 1.621-0.521c0.543 0 1.078 0.131 1.605 0.393v0.949c-0.52-0.238-1.01-0.357-1.471-0.357 -0.793 0-1.189 0.256-1.189 0.768 0 0.168 0.105 0.308 0.316 0.419s0.465 0.209 0.762 0.293 0.594 0.186 0.893 0.305 0.555 0.319 0.768 0.601 0.32 0.629 0.32 1.043c0 0.48-0.182 0.895-0.545 1.242s-0.926 0.521-1.688 0.521c-0.641 0-1.217-0.139-1.729-0.416v-0.996c0.52 0.293 1.072 0.439 1.658 0.439 0.008 0 0.016 0 0.023 0 0.383 0 0.674-0.069 0.875-0.208s0.303-0.315 0.303-0.53c0-0.246-0.105-0.444-0.314-0.595s-0.463-0.268-0.764-0.352 -0.602-0.178-0.9-0.281 -0.553-0.275-0.762-0.516S315.281 95.754 315.281 95.371zM320.801 101.008l0.885-2.35h1.131l-1.008 2.35H320.801zM328.846 99.666v-5.484c1-0.398 1.973-0.598 2.918-0.598v1.008c-0.594 0.008-1.199 0.092-1.816 0.252v4.822H328.846zM332.982 92.752v-1.16h1.172v1.16H332.982zM333.018 99.666v-5.988h1.102v5.988H333.018zM335.689 96.631c0-0.93 0.209-1.672 0.629-2.227s1.066-0.832 1.938-0.832c0.727 0 1.309 0.164 1.746 0.492s0.656 0.795 0.656 1.4v4.453c0 0.266-0.039 0.512-0.115 0.738s-0.203 0.448-0.383 0.665 -0.451 0.387-0.812 0.51 -0.801 0.185-1.32 0.185c-0.602 0-1.193-0.084-1.775-0.252v-1.043c0.566 0.176 1.127 0.264 1.682 0.264 0.383 0 0.693-0.034 0.934-0.103s0.406-0.166 0.498-0.293 0.148-0.234 0.168-0.322 0.029-0.204 0.029-0.349v-0.527c-0.406 0.113-0.809 0.17-1.207 0.17 -0.855 0-1.514-0.252-1.975-0.756S335.689 97.576 335.689 96.631zM336.791 96.631c0 0.777 0.139 1.294 0.416 1.55s0.66 0.384 1.148 0.384c0.43 0 0.832-0.076 1.207-0.229v-2.941c0-0.09-0.008-0.166-0.023-0.229s-0.061-0.15-0.133-0.264 -0.205-0.199-0.4-0.258 -0.445-0.088-0.75-0.088c-0.199 0-0.373 0.023-0.521 0.07s-0.301 0.137-0.457 0.27 -0.277 0.345-0.361 0.636S336.791 96.189 336.791 96.631zM342.252 99.666v-8.268h1.102v2.484c0.512-0.199 1.039-0.299 1.582-0.299 0.742 0 1.318 0.222 1.729 0.665s0.615 1.073 0.615 1.89v3.527h-1.107v-3.562c0-0.586-0.125-0.977-0.373-1.172s-0.57-0.293-0.969-0.293c-0.488 0-0.98 0.096-1.477 0.287v4.74H342.252zM348.27 94.604v-0.926h1.043v-1.787h1.096v1.787h1.594v0.926h-1.594v3.48c0 0.469 0.295 0.703 0.885 0.703 0.004 0 0.008 0 0.012 0 0.273 0 0.506-0.059 0.697-0.176v0.984c-0.273 0.109-0.547 0.164-0.82 0.164 -0.008 0-0.018 0-0.029 0 -0.145 0-0.299-0.018-0.463-0.053s-0.361-0.104-0.59-0.208 -0.416-0.283-0.564-0.539 -0.223-0.573-0.223-0.952v-3.404H348.27zM357.504 99.666v-5.473c0.832-0.414 1.684-0.621 2.555-0.621 0.754 0 1.344 0.197 1.771 0.592s0.643 0.941 0.643 1.641v3.861h-1.107v-3.938c0-0.352-0.09-0.629-0.27-0.832s-0.541-0.305-1.084-0.305c-0.488 0-0.957 0.072-1.406 0.217v4.857H357.504zM364.16 98.228c-0.168-0.424-0.252-0.94-0.252-1.55s0.084-1.126 0.252-1.55 0.396-0.741 0.686-0.952 0.584-0.36 0.887-0.448 0.635-0.132 0.996-0.132 0.693 0.044 0.996 0.132 0.6 0.237 0.889 0.448 0.518 0.528 0.686 0.952 0.252 0.94 0.252 1.55 -0.084 1.126-0.252 1.55 -0.396 0.741-0.686 0.952 -0.586 0.36-0.889 0.448 -0.635 0.132-0.996 0.132 -0.693-0.044-0.996-0.132 -0.598-0.237-0.887-0.448S364.328 98.651 364.16 98.228zM365.146 95.567c-0.088 0.291-0.131 0.661-0.131 1.11s0.043 0.819 0.131 1.11 0.221 0.507 0.396 0.647 0.354 0.234 0.533 0.281 0.396 0.07 0.652 0.07 0.475-0.023 0.654-0.07 0.357-0.141 0.533-0.281 0.307-0.356 0.395-0.647 0.133-0.661 0.133-1.11 -0.045-0.819-0.133-1.11 -0.219-0.507-0.395-0.647 -0.354-0.234-0.533-0.281 -0.398-0.07-0.654-0.07 -0.473 0.023-0.652 0.07 -0.357 0.141-0.533 0.281S365.234 95.276 365.146 95.567zM370.4 93.678h1.213l1.342 4.43 1.318-4.43h1.02l1.336 4.43 1.33-4.43h1.213l-1.98 5.988h-1.09l-1.312-4.166 -1.318 4.166h-1.09L370.4 93.678zM380.584 99.666v-1.043h1.119v1.043H380.584z"/><path fill-rule="evenodd" clip-rule="evenodd" fill="#FFFFFF" d="M221.409 78.343c0.892-0.159 1.854-1.048 1.854-2.08 0-2.287-2.46-2.906-4.332-2.906 -1.141 0-2.318 0.302-3.262 0.747v2.302c1.462-0.604 2.21-0.54 2.923-0.54 0.749 0 1.587 0.254 1.587 0.794 0 0.429-0.339 0.874-1.248 0.874h-1.979v1.969h1.943c1.462 0 1.801 0.65 1.801 1.159 0 0.619-0.713 1.111-1.748 1.111 -1.016 0-2.299-0.429-3.494-1.064v2.62c1.088 0.492 2.336 0.89 3.619 0.89 2.033 0 4.671-0.571 4.671-3.097C223.745 79.756 222.8 78.691 221.409 78.343L221.409 78.343 221.409 78.343zM230.555 77.104c-0.16 0-1.248 0.063-1.658 0.207 0.178-1.207 1.676-1.62 2.799-1.62 0.446 0 1.087 0.048 2.175 0.35v-2.303c-0.553-0.237-1.551-0.381-2.424-0.381 -1.694 0-5.545 0.556-5.545 5.827 0 3.335 1.498 5.034 4.404 5.034 3.209 0 4.385-2.08 4.385-3.858C234.691 77.501 232.498 77.104 230.555 77.104L230.555 77.104zM230.306 81.867c-0.695 0-1.409-0.873-1.355-2.874 0.339-0.127 0.802-0.175 1.32-0.175 0.998 0 1.337 0.842 1.337 1.525C231.607 80.629 231.482 81.867 230.306 81.867L230.306 81.867zM241.537 73.356c-3.191 0-4.813 1.842-4.813 5.431s1.622 5.431 4.813 5.431c3.209 0 4.813-1.842 4.813-5.431S244.746 73.356 241.537 73.356L241.537 73.356zM241.537 81.852c-0.82 0-1.729-0.429-1.729-3.064s0.909-3.097 1.729-3.097c0.838 0 1.765 0.461 1.765 3.097S242.375 81.852 241.537 81.852z"/><path fill-rule="evenodd" clip-rule="evenodd" fill="#FFFFFF" d="M115.146 73.645c0-5.372-3.109-6.169-4.943-6.169 -4.294 0-4.63 2.885-4.63 3.776v12.573h2.058v-4.621c0.761 0.234 1.566 0.352 2.371 0.352C112.35 79.556 115.146 78.524 115.146 73.645L115.146 73.645zM113.088 73.645c0 3.519-1.477 3.988-3.087 3.988 -0.827 0-1.61-0.165-2.371-0.47v-6.052c0-1.173 0.872-1.76 2.572-1.76C111.544 69.352 113.088 69.845 113.088 73.645L113.088 73.645zM122.706 67.499c-2.394 0-5.257 1.056-5.257 6.028 0 4.974 2.863 6.028 5.257 6.028 2.393 0 5.256-1.055 5.256-6.028C127.962 68.555 125.099 67.499 122.706 67.499L122.706 67.499zM122.706 77.656c-1.678 0-3.199-0.493-3.199-4.129s1.521-4.129 3.199-4.129c1.677 0 3.198 0.493 3.198 4.129S124.383 77.656 122.706 77.656L122.706 77.656zM143.642 67.663l-2.483 8.656 -2.482-8.656h-1.902l-2.46 8.656 -2.505-8.656h-2.259l3.691 11.705h2.035l2.46-8.14 2.438 8.14h2.035l3.69-11.705H143.642L143.642 67.663zM152.858 77.727c-1.477 0-2.841-0.54-3.154-2.979h7.694c0.044-0.516 0.067-1.056 0.067-1.618 0-3.425-1.923-5.653-4.921-5.653 -4.943 0-4.943 4.668-4.943 6.192 0 4.879 2.796 5.912 5.144 5.912 1.588 0 2.908-0.306 3.959-0.774v-1.947C155.766 77.374 154.513 77.727 152.858 77.727L152.858 77.727zM152.544 69.398c2.214 0 2.751 2.041 2.863 3.401h-5.726C149.86 70.29 150.666 69.398 152.544 69.398L152.544 69.398zM162.163 69.938c0.873-0.234 2.058-0.469 3.378-0.493v-1.97c-2.998 0-5.324 1.126-5.436 1.173v10.72h2.058V69.938L162.163 69.938zM172.676 63.698h-4.764v15.67h4.764c4.585 0 7.001-2.697 7.001-7.823C179.677 66.396 177.261 63.698 172.676 63.698L172.676 63.698zM172.34 77.445h-2.349V65.622h2.349c3.646 0 5.279 1.834 5.279 5.923C177.619 75.611 175.986 77.445 172.34 77.445L172.34 77.445zM186.387 67.476c-1.432 0-2.55 0.305-3.377 0.633v1.83c0.715-0.258 1.812-0.587 3.087-0.587 2.192 0 2.997 0.845 3.086 2.769 -0.648-0.094-1.319-0.141-2.035-0.141 -3.288 0-5.257 1.384-5.257 3.706 0 0.915 0.336 3.87 4.72 3.87 4.294 0 4.63-2.908 4.63-3.8v-3.378C191.241 69.211 189.497 67.476 186.387 67.476L186.387 67.476zM189.183 75.732c0 1.29-0.872 1.924-2.572 1.924 -1.767 0-2.685-0.657-2.685-1.994 0-1.666 2.349-1.971 3.311-1.971 0.738 0 1.409 0.047 1.946 0.141V75.732L189.183 75.732zM199.831 69.47v-1.807h-2.975v-3.495h-2.035v3.495h-1.946v1.807h1.946v6.661c0 3.167 2.706 3.425 3.422 3.425 0.626 0 1.141-0.141 1.588-0.328v-1.924c-0.291 0.188-0.716 0.353-1.298 0.353 -1.051 0-1.677-0.376-1.677-1.385V69.47H199.831L199.831 69.47zM206.406 67.476c-1.431 0-2.55 0.305-3.377 0.633v1.83c0.716-0.258 1.812-0.587 3.087-0.587 2.192 0 2.997 0.845 3.087 2.769 -0.648-0.094-1.32-0.141-2.036-0.141 -3.288 0-5.256 1.384-5.256 3.706 0 0.915 0.335 3.87 4.719 3.87 4.295 0 4.63-2.908 4.63-3.8v-3.378C211.26 69.211 209.516 67.476 206.406 67.476L206.406 67.476zM209.203 75.732c0 1.29-0.873 1.924-2.573 1.924 -1.767 0-2.684-0.657-2.684-1.994 0-1.666 2.349-1.971 3.311-1.971 0.738 0 1.409 0.047 1.946 0.141V75.732z"/><path fill-rule="evenodd" clip-rule="evenodd" fill="#A44685" d="M50.606 57.001L17.823 38.71c3.218-5.689 7.893-10.435 13.556-13.758L50.606 57.001z"/><path fill-rule="evenodd" clip-rule="evenodd" fill="#D83B20" d="M52.489 56.624L32.879 23.936c2.876-1.687 5.964-2.992 9.186-3.883 20.357-5.627 41.528 6.185 47.285 26.382 1.83 6.419 1.925 13.196 0.273 19.65L52.489 56.624z"/><path fill-rule="evenodd" clip-rule="evenodd" fill="#F9A533" d="M51.597 58.271l37.641 9.59C85.833 81.176 75.512 91.65 62.163 95.341c-6.559 1.812-13.49 1.881-20.097 0.198L51.597 58.271z"/><path fill-rule="evenodd" clip-rule="evenodd" fill="#7EA731" d="M49.225 60.017l-8.918 34.866C27.726 91.678 17.8 82.07 14.268 69.68L49.225 60.017z"/><path fill-rule="evenodd" clip-rule="evenodd" fill="#109EAC" d="M49.028 58.187L13.77 67.932c-2.644-9.276-1.466-19.2 3.276-27.588L49.028 58.187z"/><path fill-rule="evenodd" clip-rule="evenodd" fill="#006CAE" d="M49.927 52.412c3.262-0.902 6.654 0.99 7.576 4.227 0.922 3.237-0.974 6.591-4.236 7.493 -3.262 0.901-6.654-0.991-7.577-4.228S46.665 53.313 49.927 52.412z"/><path fill-rule="evenodd" clip-rule="evenodd" fill="#FFFFFF" d="M88.486 89.112l-1.461-1.365 0.003-0.005 0.657-0.719 0.642-0.734 1.521 1.299 -0.671 0.769 -0.688 0.752L88.486 89.112 88.486 89.112zM79.021 96.855l-1.055-1.699 0.077-0.047 0.819-0.521 0.746-0.496 1.127 1.651 -0.782 0.521 -0.855 0.545L79.021 96.855 79.021 96.855zM67.877 101.882l-0.585-1.912 0.103-0.03 0.938-0.299 0.819-0.28 0.667 1.886 -0.86 0.294 -0.979 0.312L67.877 101.882 67.877 101.882zM55.853 103.914l-0.14-1.995 1.288-0.059 0.658-0.062 0.238 1.986 -0.757 0.071L55.853 103.914 55.853 103.914zM43.685 102.911l0.343-1.97 1.72 0.342 0.196 0.029 -0.249 1.984 -0.291-0.043L43.685 102.911 43.685 102.911zM32.112 98.896l0.878-1.797 0.235 0.122 1.534 0.705 -0.793 1.837 -1.618-0.745L32.112 98.896 32.112 98.896zM21.949 92.147l1.269-1.545 0.882 0.76 0.622 0.486 -1.196 1.604 -0.696-0.545L21.949 92.147 21.949 92.147zM13.8 83.062l1.599-1.201 1.163 1.627 -1.599 1.202L13.8 83.062 13.8 83.062zM8.291 72.108l1.882-0.678 0.195 0.588 0.482 1.239L9.005 74.03l-0.52-1.334L8.291 72.108 8.291 72.108zM5.891 60.126l1.993-0.175 0.066 1.08 0.098 0.86L6.067 62.17l-0.109-0.965L5.891 60.126 5.891 60.126zM6.797 47.942l1.971 0.339 -0.369 1.861 -0.007 0.051 -1.986-0.238 0.022-0.151L6.797 47.942 6.797 47.942zM11.028 36.435l1.782 0.907 -0.394 0.729 -0.484 1.011 -1.825-0.817 0.526-1.101L11.028 36.435 11.028 36.435zM18.159 26.526l1.509 1.312 -1.339 1.468 0.022-0.027 -1.572-1.237 0.04-0.048L18.159 26.526 18.159 26.526zM27.703 18.838l1.067 1.691 -0.688 0.411 -0.957 0.638 -1.149-1.638 1.038-0.691L27.703 18.838 27.703 18.838zM38.875 13.911l0.623 1.9 -1.407 0.423 -0.454 0.162 -0.716-1.868 0.547-0.194L38.875 13.911 38.875 13.911zM50.931 11.957l0.14 1.995 -1.667 0.075 -0.281 0.026 -0.237-1.985 0.378-0.036L50.931 11.957 50.931 11.957zM63.092 13.051l-0.343 1.971 -1.962-0.391 0.343-1.971L63.092 13.051 63.092 13.051zM74.63 17.166l-0.878 1.797 -0.573-0.297L71.99 18.12l0.793-1.837 1.273 0.586L74.63 17.166 74.63 17.166zM84.744 23.988l-1.27 1.545 -1.169-1.007 -0.323-0.253 1.195-1.603 0.397 0.31L84.744 23.988 84.744 23.988zM92.844 33.181l-1.655 1.123 -0.129-0.201 -0.996-1.394 1.599-1.202 1.053 1.473L92.844 33.181 92.844 33.181zM98.233 44.141l-1.882 0.678 -0.314-0.949 -0.344-0.885 1.845-0.772 0.381 0.98L98.233 44.141 98.233 44.141zM100.145 57.104l-8.549-12.606 0.403 0.106 0.4 0.096 0.398 0.084 0.396 0.073 0.394 0.061 0.392 0.05 0.389 0.038 0.387 0.026 0.385 0.016 0.383 0.004 0.38-0.008 0.378-0.02 0.376-0.031 0.374-0.043 0.372-0.054 0.369-0.065 0.367-0.076 0.365-0.089 0.363-0.1 0.36-0.112 0.358-0.122 0.356-0.135 0.354-0.146 0.352-0.157 0.349-0.169 0.347-0.181 0.345-0.192 0.343-0.203 0.34-0.215 0.338-0.227 0.336-0.238 0.333-0.249 0 0L100.145 57.104z"/></svg>
