<svg xmlns="http://www.w3.org/2000/svg" xmlns:xlink="http://www.w3.org/1999/xlink" version="1.1" x="0" y="0" width="463.5" height="141" viewBox="0 0 463.5 141" enable-background="new 0 0 463.5 141" xml:space="preserve"><path fill="#FFFFFF" d="M156.065 123.228c0-0.849 0.306-1.573 0.917-2.169 0.611-0.595 1.557-0.891 2.837-0.891 0.965 0 1.889 0.224 2.771 0.675v1.479c-0.787-0.473-1.65-0.708-2.589-0.708 -1.627 0-2.44 0.537-2.44 1.613 0 0.289 0.143 0.539 0.429 0.755 0.286 0.215 0.639 0.387 1.058 0.516 0.42 0.128 0.879 0.295 1.377 0.5 0.499 0.204 0.958 0.422 1.377 0.652 0.419 0.231 0.771 0.569 1.054 1.015 0.284 0.447 0.426 0.966 0.426 1.56 0 0.923-0.344 1.646-1.031 2.164 -0.688 0.52-1.638 0.778-2.85 0.778 -1.075 0-2.141-0.261-3.195-0.786v-1.551c0.997 0.604 2.018 0.905 3.062 0.905 1.674 0 2.513-0.503 2.519-1.511 0-0.43-0.143-0.797-0.426-1.103 -0.283-0.304-0.634-0.524-1.055-0.661l-1.385-0.463c-0.503-0.175-0.964-0.351-1.38-0.533 -0.417-0.179-0.768-0.462-1.051-0.846C156.207 124.236 156.065 123.772 156.065 123.228zM164.974 127.122c0-2.834 1.183-4.25 3.549-4.25 0.005 0 0.01 0 0.015 0 1.076 0 1.935 0.354 2.578 1.056 0.643 0.703 0.965 1.644 0.965 2.826 0 0.388-0.016 0.76-0.048 1.117h-5.54c0.178 1.363 0.934 2.045 2.266 2.045 1.085 0 2.013-0.199 2.778-0.598v1.338c-0.829 0.353-1.766 0.527-2.81 0.527 -0.015 0-0.031 0-0.047 0 -0.472 0-0.907-0.06-1.306-0.176 -0.399-0.119-0.789-0.314-1.169-0.587 -0.381-0.273-0.681-0.691-0.901-1.256C165.084 128.601 164.974 127.921 164.974 127.122zM166.469 126.532h4.131c-0.021-0.268-0.066-0.523-0.138-0.766 -0.07-0.245-0.178-0.494-0.322-0.745 -0.145-0.252-0.353-0.452-0.626-0.602 -0.272-0.149-0.598-0.225-0.976-0.225 -0.676 0-1.173 0.174-1.491 0.523C166.731 125.068 166.538 125.672 166.469 126.532zM173.883 131.041v-11.104h1.479v11.104H173.883zM177.394 124.288v-1.289h1.125v-0.386c0-1.998 0.892-2.999 2.676-2.999 0.298 0 0.59 0.038 0.873 0.11v1.274c-0.215-0.042-0.415-0.062-0.598-0.062 -0.246 0-0.434 0.011-0.562 0.032 -0.129 0.021-0.277 0.078-0.445 0.177 -0.168 0.098-0.289 0.267-0.362 0.507 -0.074 0.241-0.11 0.562-0.11 0.961v0.386h2.077v1.289h-2.077v6.753h-1.472v-6.753H177.394zM183.335 126.87v-1.259h4.911v1.259H183.335zM190.34 125.272c0-0.665 0.237-1.231 0.712-1.7 0.475-0.466 1.2-0.7 2.176-0.7 0.73 0 1.448 0.177 2.156 0.527v1.275c-0.697-0.319-1.356-0.479-1.975-0.479 -1.065 0-1.598 0.343-1.598 1.031 0 0.227 0.142 0.413 0.425 0.562 0.284 0.149 0.625 0.281 1.023 0.394s0.799 0.249 1.2 0.409c0.402 0.159 0.745 0.429 1.031 0.807 0.286 0.377 0.429 0.845 0.429 1.401 0 0.644-0.243 1.201-0.731 1.668s-1.243 0.699-2.267 0.699c-0.86 0-1.634-0.186-2.321-0.558v-1.339c0.697 0.394 1.44 0.591 2.227 0.591 0.011 0 0.021 0 0.032 0 0.514 0 0.905-0.093 1.176-0.279s0.406-0.423 0.406-0.712c0-0.331-0.141-0.597-0.421-0.8 -0.281-0.2-0.624-0.358-1.027-0.471 -0.404-0.114-0.807-0.239-1.208-0.378 -0.401-0.141-0.743-0.371-1.023-0.693C190.48 126.207 190.34 125.787 190.34 125.272zM197.462 127.122c0-2.834 1.182-4.25 3.549-4.25 0.006 0 0.011 0 0.017 0 1.075 0 1.933 0.354 2.576 1.056 0.643 0.703 0.964 1.644 0.964 2.826 0 0.388-0.015 0.76-0.047 1.117h-5.541c0.179 1.363 0.935 2.045 2.267 2.045 1.086 0 2.012-0.199 2.777-0.598v1.338c-0.828 0.353-1.765 0.527-2.809 0.527 -0.017 0-0.032 0-0.047 0 -0.472 0-0.907-0.06-1.307-0.176 -0.399-0.119-0.788-0.314-1.168-0.587 -0.381-0.273-0.681-0.691-0.901-1.256C197.572 128.601 197.462 127.921 197.462 127.122zM198.957 126.532h4.133c-0.022-0.268-0.068-0.523-0.139-0.766 -0.07-0.245-0.179-0.494-0.323-0.745 -0.144-0.252-0.353-0.452-0.625-0.602s-0.598-0.225-0.975-0.225c-0.678 0-1.174 0.174-1.492 0.523C199.218 125.068 199.025 125.672 198.957 126.532zM206.465 131.041v-7.366c1.343-0.535 2.65-0.803 3.919-0.803v1.354c-0.798 0.011-1.61 0.124-2.439 0.34v6.476H206.465zM211.651 122.999h1.575l2.258 6.271 2.275-6.271h1.574l-3.093 8.042h-1.511L211.651 122.999zM220.458 127.122c0-2.834 1.183-4.25 3.549-4.25 0.006 0 0.011 0 0.017 0 1.075 0 1.935 0.354 2.577 1.056 0.643 0.703 0.963 1.644 0.963 2.826 0 0.388-0.015 0.76-0.046 1.117h-5.541c0.179 1.363 0.935 2.045 2.267 2.045 1.086 0 2.012-0.199 2.778-0.598v1.338c-0.829 0.353-1.765 0.527-2.809 0.527 -0.017 0-0.032 0-0.047 0 -0.473 0-0.907-0.06-1.307-0.176 -0.399-0.119-0.788-0.314-1.168-0.587 -0.381-0.273-0.681-0.691-0.901-1.256C220.569 128.601 220.458 127.921 220.458 127.122zM221.954 126.532h4.132c-0.021-0.268-0.067-0.523-0.138-0.766 -0.071-0.245-0.179-0.494-0.323-0.745 -0.145-0.252-0.353-0.452-0.625-0.602 -0.273-0.149-0.598-0.225-0.976-0.225 -0.676 0-1.174 0.174-1.492 0.523S222.022 125.672 221.954 126.532zM234.845 127.122c0-2.834 1.183-4.25 3.55-4.25 0.005 0 0.01 0 0.015 0 1.076 0 1.936 0.354 2.577 1.056 0.643 0.703 0.964 1.644 0.964 2.826 0 0.388-0.016 0.76-0.047 1.117h-5.541c0.179 1.363 0.934 2.045 2.267 2.045 1.085 0 2.012-0.199 2.778-0.598v1.338c-0.829 0.353-1.766 0.527-2.809 0.527 -0.017 0-0.032 0-0.048 0 -0.471 0-0.907-0.06-1.306-0.176 -0.399-0.119-0.789-0.314-1.169-0.587 -0.38-0.273-0.68-0.691-0.901-1.256C234.956 128.601 234.845 127.921 234.845 127.122zM236.34 126.532h4.132c-0.021-0.268-0.067-0.523-0.138-0.766 -0.071-0.245-0.179-0.494-0.324-0.745 -0.144-0.252-0.352-0.452-0.625-0.602s-0.598-0.225-0.976-0.225c-0.676 0-1.174 0.174-1.492 0.523C236.602 125.068 236.409 125.672 236.34 126.532zM243.896 131.041v-7.35c1.118-0.556 2.261-0.834 3.432-0.834 1.012 0 1.807 0.265 2.381 0.795 0.574 0.53 0.861 1.264 0.861 2.203v5.186h-1.487v-5.288c0-0.472-0.121-0.845-0.362-1.117s-0.727-0.41-1.456-0.41c-0.656 0-1.286 0.098-1.888 0.293v6.522H243.896zM252.003 124.241v-1.242h1.4v-2.401h1.472v2.401h2.141v1.242h-2.141v4.676c0 0.63 0.396 0.944 1.188 0.944 0.005 0 0.011 0 0.016 0 0.368 0 0.68-0.078 0.937-0.236v1.322c-0.368 0.147-0.735 0.22-1.102 0.22 -0.011 0-0.023 0-0.039 0 -0.195 0-0.402-0.021-0.623-0.069 -0.22-0.048-0.484-0.141-0.791-0.279 -0.307-0.14-0.561-0.381-0.759-0.725 -0.199-0.344-0.299-0.77-0.299-1.279v-4.573H252.003zM258.455 127.122c0-2.834 1.184-4.25 3.551-4.25 0.005 0 0.01 0 0.016 0 1.076 0 1.934 0.354 2.576 1.056 0.644 0.703 0.965 1.644 0.965 2.826 0 0.388-0.016 0.76-0.047 1.117h-5.542c0.179 1.363 0.935 2.045 2.268 2.045 1.087 0 2.012-0.199 2.778-0.598v1.338c-0.829 0.353-1.766 0.527-2.809 0.527 -0.017 0-0.032 0-0.048 0 -0.473 0-0.907-0.06-1.307-0.176 -0.398-0.119-0.788-0.314-1.167-0.587 -0.38-0.273-0.682-0.691-0.902-1.256C258.565 128.601 258.455 127.921 258.455 127.122zM259.951 126.532h4.131c-0.021-0.268-0.066-0.523-0.137-0.766 -0.071-0.245-0.179-0.494-0.322-0.745 -0.145-0.252-0.354-0.452-0.627-0.602 -0.272-0.149-0.598-0.225-0.975-0.225 -0.677 0-1.174 0.174-1.492 0.523C260.212 125.068 260.02 125.672 259.951 126.532zM267.459 131.041v-7.366c1.344-0.535 2.649-0.803 3.92-0.803v1.354c-0.798 0.011-1.611 0.124-2.439 0.34v6.476H267.459zM272.858 134.104v-8.642c0-0.172 0.016-0.345 0.047-0.515 0.032-0.171 0.111-0.387 0.24-0.649 0.128-0.264 0.303-0.495 0.522-0.693 0.221-0.2 0.552-0.37 0.993-0.516 0.44-0.144 0.951-0.217 1.534-0.217 0.299 0 0.592 0.026 0.877 0.079 0.286 0.054 0.599 0.171 0.938 0.354 0.337 0.184 0.63 0.422 0.877 0.716 0.246 0.295 0.452 0.707 0.617 1.24 0.166 0.532 0.248 1.146 0.248 1.845 0 0.799-0.109 1.479-0.327 2.042 -0.218 0.564-0.518 0.983-0.899 1.257 -0.384 0.272-0.774 0.467-1.17 0.586 -0.396 0.118-0.833 0.176-1.31 0.176 -0.594 0-1.162-0.077-1.709-0.234v3.171H272.858zM274.337 129.523c0.557 0.214 1.126 0.322 1.709 0.322 0.33 0 0.612-0.032 0.846-0.094 0.233-0.064 0.463-0.185 0.688-0.362 0.225-0.179 0.397-0.458 0.516-0.839 0.118-0.379 0.177-0.861 0.177-1.444 0-0.622-0.059-1.142-0.177-1.555 -0.118-0.41-0.288-0.711-0.508-0.899 -0.221-0.189-0.438-0.317-0.652-0.387 -0.216-0.068-0.463-0.101-0.74-0.101 -1.238 0-1.858 0.4-1.858 1.203V129.523zM281.72 131.041v-7.366c1.343-0.535 2.65-0.803 3.92-0.803v1.354c-0.799 0.011-1.611 0.124-2.439 0.34v6.476H281.72zM287.276 121.756v-1.559h1.574v1.559H287.276zM287.324 131.041v-8.042h1.479v8.042H287.324zM290.936 125.272c0-0.665 0.237-1.231 0.713-1.7 0.474-0.466 1.2-0.7 2.176-0.7 0.729 0 1.448 0.177 2.157 0.527v1.275c-0.699-0.319-1.357-0.479-1.976-0.479 -1.066 0-1.599 0.343-1.599 1.031 0 0.227 0.143 0.413 0.425 0.562 0.284 0.149 0.625 0.281 1.023 0.394 0.399 0.112 0.799 0.249 1.201 0.409 0.401 0.159 0.743 0.429 1.031 0.807 0.284 0.377 0.427 0.845 0.427 1.401 0 0.644-0.242 1.201-0.731 1.668 -0.488 0.467-1.242 0.699-2.267 0.699 -0.859 0-1.635-0.186-2.319-0.558v-1.339c0.696 0.394 1.438 0.591 2.225 0.591 0.012 0 0.022 0 0.032 0 0.513 0 0.907-0.093 1.178-0.279 0.27-0.187 0.403-0.423 0.403-0.712 0-0.331-0.141-0.597-0.419-0.8 -0.281-0.2-0.625-0.358-1.028-0.471 -0.404-0.114-0.808-0.239-1.207-0.378 -0.402-0.141-0.743-0.371-1.024-0.693C291.076 126.207 290.936 125.787 290.936 125.272zM298.059 127.122c0-2.834 1.183-4.25 3.549-4.25 0.005 0 0.011 0 0.016 0 1.076 0 1.935 0.354 2.577 1.056 0.642 0.703 0.966 1.644 0.966 2.826 0 0.388-0.017 0.76-0.048 1.117h-5.541c0.178 1.363 0.934 2.045 2.267 2.045 1.086 0 2.013-0.199 2.777-0.598v1.338c-0.828 0.353-1.763 0.527-2.81 0.527 -0.015 0-0.031 0-0.046 0 -0.473 0-0.907-0.06-1.308-0.176 -0.397-0.119-0.787-0.314-1.168-0.587 -0.381-0.273-0.68-0.691-0.902-1.256C298.169 128.601 298.059 127.921 298.059 127.122zM299.554 126.532h4.133c-0.021-0.268-0.069-0.523-0.14-0.766 -0.071-0.245-0.179-0.494-0.322-0.745 -0.146-0.252-0.353-0.452-0.624-0.602 -0.274-0.149-0.6-0.225-0.978-0.225 -0.677 0-1.174 0.174-1.491 0.523S299.621 125.672 299.554 126.532zM312.335 128.508c0-0.798 0.337-1.421 1.008-1.869 0.672-0.448 1.598-0.673 2.778-0.673 0.504 0 0.991 0.032 1.462 0.096 -0.029-0.679-0.217-1.164-0.555-1.458 -0.339-0.294-0.893-0.438-1.663-0.438 -0.698 0-1.44 0.133-2.228 0.4v-1.26c0.761-0.288 1.571-0.434 2.433-0.434 1.117 0 1.98 0.291 2.59 0.87 0.608 0.58 0.912 1.413 0.912 2.498v2.323c0 0.173-0.019 0.345-0.053 0.516 -0.033 0.17-0.114 0.39-0.243 0.656 -0.129 0.269-0.301 0.502-0.521 0.701s-0.552 0.37-0.992 0.516c-0.441 0.144-0.95 0.215-1.528 0.215 -0.593 0-1.11-0.074-1.558-0.224 -0.445-0.148-0.782-0.323-1.006-0.522 -0.228-0.2-0.408-0.436-0.541-0.709 -0.136-0.273-0.215-0.499-0.248-0.677C312.352 128.856 312.335 128.682 312.335 128.508zM313.799 128.493c0 0.912 0.646 1.368 1.936 1.368 0.006 0 0.015 0 0.025 0 1.216 0 1.823-0.438 1.823-1.313v-1.306c-0.386-0.063-0.854-0.099-1.399-0.103 -0.214 0-0.441 0.019-0.676 0.058 -0.237 0.039-0.491 0.101-0.765 0.185 -0.272 0.084-0.497 0.224-0.677 0.418C313.89 127.992 313.799 128.225 313.799 128.493zM321.213 131.041v-7.35c1.117-0.556 2.262-0.834 3.432-0.834 1.013 0 1.804 0.265 2.38 0.795 0.573 0.53 0.862 1.264 0.862 2.203v5.186H326.4v-5.288c0-0.472-0.123-0.845-0.363-1.117 -0.242-0.272-0.728-0.41-1.456-0.41 -0.654 0-1.284 0.098-1.889 0.293v6.522H321.213zM329.761 128.508c0-0.798 0.335-1.421 1.007-1.869 0.671-0.448 1.598-0.673 2.779-0.673 0.502 0 0.99 0.032 1.462 0.096 -0.03-0.679-0.217-1.164-0.556-1.458s-0.893-0.438-1.663-0.438c-0.697 0-1.44 0.133-2.227 0.4v-1.26c0.76-0.288 1.57-0.434 2.431-0.434 1.118 0 1.981 0.291 2.589 0.87 0.609 0.58 0.914 1.413 0.914 2.498v2.323c0 0.173-0.02 0.345-0.054 0.516 -0.033 0.17-0.114 0.39-0.242 0.656 -0.13 0.269-0.303 0.502-0.522 0.701s-0.552 0.37-0.991 0.516c-0.441 0.144-0.95 0.215-1.528 0.215 -0.593 0-1.111-0.074-1.559-0.224 -0.445-0.148-0.78-0.323-1.008-0.522 -0.225-0.2-0.406-0.436-0.539-0.709 -0.135-0.273-0.215-0.499-0.246-0.677C329.775 128.856 329.761 128.682 329.761 128.508zM331.224 128.493c0 0.912 0.646 1.368 1.936 1.368 0.006 0 0.014 0 0.023 0 1.219 0 1.826-0.438 1.826-1.313v-1.306c-0.387-0.063-0.854-0.099-1.401-0.103 -0.214 0-0.439 0.019-0.677 0.058 -0.235 0.039-0.489 0.101-0.764 0.185 -0.272 0.084-0.497 0.224-0.677 0.418C331.312 127.992 331.224 128.225 331.224 128.493zM338.715 131.041v-11.104h1.48v11.104H338.715zM341.95 122.999h1.582l2.165 6.028 2.124-6.028h1.583l-3.306 8.9c-0.571 1.542-1.405 2.314-2.494 2.314h-0.01c-0.356 0-0.73-0.042-1.124-0.126v-1.322c0.32 0.084 0.621 0.129 0.905 0.134 0.666 0 1.203-0.62 1.611-1.858L341.95 122.999zM350.513 124.241v-1.242h1.401v-2.401h1.471v2.401h2.142v1.242h-2.142v4.676c0 0.63 0.397 0.944 1.189 0.944 0.006 0 0.011 0 0.015 0 0.368 0 0.682-0.078 0.938-0.236v1.322c-0.367 0.147-0.734 0.22-1.101 0.22 -0.012 0-0.024 0-0.04 0 -0.194 0-0.401-0.021-0.622-0.069 -0.22-0.048-0.485-0.141-0.792-0.279 -0.307-0.14-0.559-0.381-0.758-0.725 -0.201-0.344-0.3-0.77-0.3-1.279v-4.573H350.513zM357.471 121.756v-1.559h1.574v1.559H357.471zM357.519 131.041v-8.042h1.479v8.042H357.519zM362.083 130.097c-0.65-0.711-0.977-1.74-0.977-3.084 0-1.343 0.326-2.369 0.977-3.076 0.649-0.709 1.587-1.064 2.81-1.064 0.818 0 1.607 0.15 2.368 0.448v1.401c-0.729-0.351-1.466-0.526-2.211-0.526 -0.011 0-0.022 0-0.031 0 -0.74 0-1.321 0.19-1.74 0.57 -0.42 0.381-0.63 1.13-0.63 2.247 0 0.593 0.062 1.084 0.184 1.475 0.124 0.393 0.309 0.682 0.552 0.871 0.244 0.188 0.49 0.314 0.741 0.377 0.247 0.062 0.548 0.096 0.894 0.096 0.771 0 1.519-0.172 2.242-0.513v1.4c-0.761 0.299-1.55 0.448-2.368 0.448C363.67 131.167 362.732 130.811 362.083 130.097zM368.576 125.272c0-0.665 0.235-1.231 0.71-1.7 0.475-0.466 1.202-0.7 2.178-0.7 0.729 0 1.447 0.177 2.157 0.527v1.275c-0.698-0.319-1.358-0.479-1.977-0.479 -1.064 0-1.597 0.343-1.597 1.031 0 0.227 0.142 0.413 0.424 0.562 0.285 0.149 0.625 0.281 1.023 0.394 0.399 0.112 0.799 0.249 1.199 0.409 0.4 0.159 0.745 0.429 1.031 0.807 0.284 0.377 0.43 0.845 0.43 1.401 0 0.644-0.243 1.201-0.732 1.668 -0.488 0.467-1.243 0.699-2.267 0.699 -0.86 0-1.634-0.186-2.321-0.558v-1.339c0.699 0.394 1.439 0.591 2.227 0.591 0.012 0 0.021 0 0.033 0 0.513 0 0.905-0.093 1.175-0.279 0.269-0.187 0.406-0.423 0.406-0.712 0-0.331-0.142-0.597-0.423-0.8 -0.28-0.2-0.621-0.358-1.024-0.471 -0.404-0.114-0.809-0.239-1.21-0.378 -0.402-0.141-0.742-0.371-1.024-0.693C368.714 126.207 368.576 125.787 368.576 125.272zM375.989 132.845l1.188-3.157h1.52l-1.354 3.157H375.989zM386.795 131.041v-7.366c1.343-0.535 2.649-0.803 3.919-0.803v1.354c-0.798 0.011-1.611 0.124-2.439 0.34v6.476H386.795zM392.352 121.756v-1.559h1.573v1.559H392.352zM392.398 131.041v-8.042h1.48v8.042H392.398zM395.986 126.966c0-1.25 0.282-2.246 0.847-2.99 0.562-0.745 1.432-1.118 2.602-1.118 0.976 0 1.757 0.221 2.345 0.661 0.589 0.44 0.883 1.069 0.883 1.882v5.979c0 0.357-0.053 0.688-0.156 0.993 -0.102 0.304-0.272 0.601-0.514 0.893 -0.241 0.291-0.605 0.521-1.091 0.684 -0.485 0.165-1.076 0.249-1.773 0.249 -0.81 0-1.603-0.113-2.385-0.34v-1.398c0.759 0.235 1.514 0.354 2.259 0.354 0.514 0 0.93-0.046 1.253-0.139 0.323-0.091 0.546-0.223 0.669-0.393 0.123-0.171 0.199-0.315 0.227-0.433 0.025-0.119 0.039-0.275 0.039-0.47v-0.707c-0.545 0.151-1.086 0.229-1.621 0.229 -1.149 0-2.033-0.339-2.651-1.017C396.296 129.208 395.986 128.236 395.986 126.966zM397.467 126.966c0 1.044 0.187 1.737 0.558 2.082 0.373 0.343 0.888 0.516 1.544 0.516 0.576 0 1.118-0.104 1.621-0.31v-3.948c0-0.121-0.011-0.225-0.032-0.308 -0.021-0.085-0.08-0.202-0.177-0.354 -0.098-0.152-0.276-0.267-0.538-0.346 -0.263-0.078-0.598-0.118-1.008-0.118 -0.268 0-0.502 0.031-0.7 0.095 -0.201 0.062-0.404 0.182-0.613 0.361 -0.211 0.179-0.374 0.463-0.485 0.853C397.521 125.881 397.467 126.372 397.467 126.966zM404.801 131.041v-11.104h1.481v3.337c0.686-0.267 1.396-0.402 2.122-0.402 0.999 0 1.772 0.299 2.324 0.895 0.551 0.595 0.827 1.441 0.827 2.537v4.737h-1.489v-4.784c0-0.786-0.167-1.312-0.499-1.574 -0.335-0.261-0.769-0.395-1.303-0.395 -0.656 0-1.316 0.13-1.982 0.387v6.366H404.801zM412.885 124.241v-1.242h1.4v-2.401h1.473v2.401h2.14v1.242h-2.14v4.676c0 0.63 0.396 0.944 1.188 0.944 0.007 0 0.011 0 0.016 0 0.367 0 0.681-0.078 0.937-0.236v1.322c-0.368 0.147-0.733 0.22-1.102 0.22 -0.01 0-0.024 0-0.04 0 -0.193 0-0.4-0.021-0.621-0.069s-0.484-0.141-0.792-0.279c-0.307-0.14-0.559-0.381-0.758-0.725s-0.3-0.77-0.3-1.279v-4.573H412.885zM425.289 131.041v-7.35c1.116-0.556 2.261-0.834 3.432-0.834 1.012 0 1.804 0.265 2.378 0.795s0.863 1.264 0.863 2.203v5.186h-1.488v-5.288c0-0.472-0.121-0.845-0.361-1.117 -0.241-0.272-0.727-0.41-1.456-0.41 -0.655 0-1.285 0.098-1.888 0.293v6.522H425.289zM434.228 129.109c-0.224-0.569-0.339-1.264-0.339-2.08 0-0.818 0.115-1.513 0.339-2.082 0.226-0.569 0.534-0.997 0.921-1.278 0.39-0.285 0.785-0.484 1.192-0.604 0.405-0.117 0.852-0.176 1.338-0.176 0.484 0 0.931 0.059 1.337 0.176 0.406 0.12 0.805 0.319 1.195 0.604 0.387 0.281 0.694 0.709 0.919 1.278 0.226 0.569 0.338 1.264 0.338 2.082 0 0.816-0.112 1.511-0.338 2.08 -0.225 0.571-0.532 0.996-0.919 1.279 -0.391 0.284-0.789 0.483-1.195 0.603 -0.406 0.118-0.853 0.176-1.337 0.176 -0.486 0-0.933-0.058-1.338-0.176 -0.407-0.119-0.803-0.318-1.192-0.603C434.762 130.105 434.453 129.681 434.228 129.109zM435.553 125.537c-0.118 0.39-0.176 0.887-0.176 1.492 0 0.602 0.058 1.1 0.176 1.49s0.296 0.682 0.533 0.87c0.235 0.189 0.474 0.314 0.716 0.378s0.532 0.094 0.877 0.094c0.343 0 0.638-0.03 0.879-0.094 0.239-0.063 0.479-0.188 0.715-0.378 0.236-0.188 0.413-0.479 0.53-0.87 0.118-0.391 0.179-0.889 0.179-1.49 0-0.605-0.061-1.103-0.179-1.492 -0.117-0.391-0.294-0.681-0.53-0.87 -0.235-0.188-0.476-0.315-0.715-0.379 -0.241-0.062-0.536-0.093-0.879-0.093 -0.345 0-0.635 0.03-0.877 0.093 -0.242 0.063-0.48 0.19-0.716 0.379C435.849 124.856 435.671 125.146 435.553 125.537zM442.61 122.999h1.629l1.803 5.95 1.77-5.95h1.37l1.795 5.95 1.786-5.95h1.629l-2.66 8.042h-1.464l-1.763-5.595 -1.771 5.595h-1.465L442.61 122.999zM456.289 131.041v-1.399h1.503v1.399H456.289z"/><path fill-rule="evenodd" clip-rule="evenodd" fill="#FFFFFF" d="M305.774 92.289c1.558-0.278 3.24-1.831 3.24-3.635 0-3.996-4.299-5.078-7.569-5.078 -1.993 0-4.05 0.527-5.699 1.306v4.021c2.554-1.055 3.861-0.943 5.106-0.943 1.31 0 2.772 0.443 2.772 1.388 0 0.749-0.591 1.527-2.18 1.527h-3.458v3.439h3.396c2.554 0 3.146 1.137 3.146 2.025 0 1.082-1.247 1.941-3.054 1.941 -1.773 0-4.018-0.749-6.104-1.86v4.578c1.9 0.86 4.081 1.555 6.323 1.555 3.552 0 8.162-0.998 8.162-5.41C309.856 94.758 308.204 92.897 305.774 92.289L305.774 92.289 305.774 92.289zM321.754 90.124c-0.28 0-2.18 0.11-2.896 0.361 0.311-2.109 2.927-2.831 4.89-2.831 0.778 0 1.9 0.084 3.801 0.611v-4.023c-0.966-0.415-2.711-0.666-4.236-0.666 -2.96 0-9.688 0.971-9.688 10.182 0 5.827 2.616 8.796 7.694 8.796 5.606 0 7.662-3.635 7.662-6.741C328.981 90.817 325.149 90.124 321.754 90.124L321.754 90.124zM321.319 98.447c-1.215 0-2.461-1.525-2.369-5.022 0.593-0.222 1.402-0.306 2.307-0.306 1.743 0 2.336 1.472 2.336 2.666C323.593 96.283 323.375 98.447 321.319 98.447L321.319 98.447zM340.942 83.576c-5.575 0-8.41 3.218-8.41 9.489 0 6.271 2.835 9.488 8.41 9.488 5.607 0 8.41-3.218 8.41-9.488C349.353 86.794 346.55 83.576 340.942 83.576L340.942 83.576zM340.942 98.42c-1.433 0-3.021-0.749-3.021-5.354s1.588-5.411 3.021-5.411c1.465 0 3.084 0.806 3.084 5.411S342.407 98.42 340.942 98.42z"/><path fill-rule="evenodd" clip-rule="evenodd" fill="#FFFFFF" d="M120.106 84.08c0-9.387-5.432-10.779-8.637-10.779 -7.503 0-8.09 5.04-8.09 6.599v21.969h3.596v-8.075c1.329 0.41 2.736 0.615 4.142 0.615C115.221 94.408 120.106 92.606 120.106 84.08L120.106 84.08zM116.511 84.08c0 6.147-2.58 6.968-5.395 6.968 -1.445 0-2.812-0.288-4.142-0.82V79.653c0-2.049 1.523-3.074 4.494-3.074C113.813 76.579 116.511 77.44 116.511 84.08L116.511 84.08zM133.316 73.343c-4.183 0-9.185 1.844-9.185 10.532 0 8.69 5.002 10.533 9.185 10.533 4.181 0 9.184-1.843 9.184-10.533C142.5 75.187 137.498 73.343 133.316 73.343L133.316 73.343zM133.316 91.09c-2.932 0-5.589-0.862-5.589-7.215s2.657-7.214 5.589-7.214c2.93 0 5.588 0.861 5.588 7.214S136.247 91.09 133.316 91.09L133.316 91.09zM169.897 73.629l-4.338 15.124 -4.338-15.124h-3.323l-4.299 15.124 -4.377-15.124h-3.947l6.449 20.451h3.556l4.299-14.222 4.261 14.222h3.556l6.448-20.451H169.897L169.897 73.629zM185.999 91.212c-2.58 0-4.964-0.943-5.511-5.206h13.444c0.077-0.9 0.117-1.845 0.117-2.827 0-5.983-3.361-9.878-8.598-9.878 -8.636 0-8.636 8.156-8.636 10.82 0 8.524 4.885 10.329 8.988 10.329 2.775 0 5.082-0.533 6.918-1.353v-3.402C191.08 90.596 188.891 91.212 185.999 91.212L185.999 91.212zM185.451 76.661c3.869 0 4.808 3.566 5.003 5.942h-10.005C180.761 78.219 182.168 76.661 185.451 76.661L185.451 76.661zM202.257 77.604c1.524-0.409 3.596-0.819 5.901-0.861v-3.442c-5.237 0-9.301 1.968-9.497 2.05V94.08h3.596V77.604L202.257 77.604zM220.625 66.701h-8.324V94.08h8.324c8.012 0 12.233-4.713 12.233-13.669C232.858 71.416 228.637 66.701 220.625 66.701L220.625 66.701zM220.039 90.721h-4.104V70.062h4.104c6.371 0 9.224 3.204 9.224 10.349C229.263 87.517 226.41 90.721 220.039 90.721L220.039 90.721zM244.583 73.301c-2.501 0-4.456 0.532-5.901 1.105v3.198c1.25-0.451 3.166-1.025 5.394-1.025 3.83 0 5.237 1.477 5.393 4.837 -1.133-0.163-2.305-0.245-3.556-0.245 -5.745 0-9.185 2.417-9.185 6.475 0 1.6 0.587 6.763 8.248 6.763 7.503 0 8.09-5.081 8.09-6.64v-5.902C253.064 76.333 250.016 73.301 244.583 73.301L244.583 73.301zM249.468 87.728c0 2.255-1.524 3.362-4.494 3.362 -3.088 0-4.691-1.149-4.691-3.484 0-2.912 4.104-3.444 5.785-3.444 1.29 0 2.462 0.082 3.4 0.246V87.728L249.468 87.728zM268.072 76.785v-3.156h-5.199v-6.107h-3.556v6.107h-3.401v3.156h3.401v11.639c0 5.534 4.728 5.984 5.979 5.984 1.094 0 1.995-0.246 2.776-0.573v-3.361c-0.509 0.329-1.252 0.616-2.269 0.616 -1.835 0-2.93-0.657-2.93-2.42V76.785H268.072L268.072 76.785zM279.562 73.301c-2.501 0-4.456 0.532-5.901 1.105v3.198c1.25-0.451 3.166-1.025 5.394-1.025 3.83 0 5.236 1.477 5.393 4.837 -1.132-0.163-2.306-0.245-3.556-0.245 -5.746 0-9.185 2.417-9.185 6.475 0 1.6 0.586 6.763 8.245 6.763 7.505 0 8.091-5.081 8.091-6.64v-5.902C288.042 76.333 284.993 73.301 279.562 73.301L279.562 73.301zM284.446 87.728c0 2.255-1.524 3.362-4.495 3.362 -3.086 0-4.689-1.149-4.689-3.484 0-2.912 4.104-3.444 5.785-3.444 1.289 0 2.462 0.082 3.399 0.246V87.728z"/><path fill-rule="evenodd" clip-rule="evenodd" fill="#A44685" d="M50.606 57.001L17.823 38.71c3.218-5.689 7.893-10.435 13.556-13.758L50.606 57.001z"/><path fill-rule="evenodd" clip-rule="evenodd" fill="#D83B20" d="M52.489 56.624L32.879 23.936c2.876-1.687 5.964-2.992 9.186-3.883 20.357-5.627 41.528 6.185 47.285 26.382 1.83 6.419 1.925 13.196 0.273 19.65L52.489 56.624z"/><path fill-rule="evenodd" clip-rule="evenodd" fill="#F9A533" d="M51.597 58.271l37.641 9.59C85.833 81.176 75.512 91.65 62.163 95.341c-6.559 1.812-13.49 1.881-20.097 0.198L51.597 58.271z"/><path fill-rule="evenodd" clip-rule="evenodd" fill="#7EA731" d="M49.225 60.017l-8.918 34.866C27.726 91.678 17.8 82.07 14.268 69.68L49.225 60.017z"/><path fill-rule="evenodd" clip-rule="evenodd" fill="#109EAC" d="M49.028 58.187L13.77 67.932c-2.644-9.276-1.466-19.2 3.276-27.588L49.028 58.187z"/><path fill-rule="evenodd" clip-rule="evenodd" fill="#006CAE" d="M49.927 52.412c3.262-0.902 6.654 0.99 7.576 4.227 0.922 3.237-0.974 6.591-4.236 7.493 -3.262 0.901-6.654-0.991-7.577-4.228S46.665 53.313 49.927 52.412z"/><path fill-rule="evenodd" clip-rule="evenodd" fill="#FFFFFF" d="M88.486 89.112l-1.461-1.365 0.003-0.005 0.657-0.719 0.642-0.734 1.521 1.299 -0.671 0.769 -0.688 0.752L88.486 89.112 88.486 89.112zM79.021 96.855l-1.055-1.699 0.077-0.047 0.819-0.521 0.746-0.496 1.127 1.651 -0.782 0.521 -0.855 0.545L79.021 96.855 79.021 96.855zM67.877 101.882l-0.585-1.912 0.103-0.03 0.938-0.299 0.819-0.28 0.667 1.886 -0.86 0.294 -0.979 0.312L67.877 101.882 67.877 101.882zM55.853 103.914l-0.14-1.995 1.288-0.059 0.658-0.062 0.238 1.986 -0.757 0.071L55.853 103.914 55.853 103.914zM43.685 102.911l0.343-1.97 1.72 0.342 0.196 0.029 -0.249 1.984 -0.291-0.043L43.685 102.911 43.685 102.911zM32.112 98.896l0.878-1.797 0.235 0.122 1.534 0.705 -0.793 1.837 -1.618-0.745L32.112 98.896 32.112 98.896zM21.949 92.147l1.269-1.545 0.882 0.76 0.622 0.486 -1.196 1.604 -0.696-0.545L21.949 92.147 21.949 92.147zM13.8 83.062l1.599-1.201 1.163 1.627 -1.599 1.202L13.8 83.062 13.8 83.062zM8.291 72.108l1.882-0.678 0.195 0.588 0.482 1.239L9.005 74.03l-0.52-1.334L8.291 72.108 8.291 72.108zM5.891 60.126l1.993-0.175 0.066 1.08 0.098 0.86L6.067 62.17l-0.109-0.965L5.891 60.126 5.891 60.126zM6.797 47.942l1.971 0.339 -0.369 1.861 -0.007 0.051 -1.986-0.238 0.022-0.151L6.797 47.942 6.797 47.942zM11.028 36.435l1.782 0.907 -0.394 0.729 -0.484 1.011 -1.825-0.817 0.526-1.101L11.028 36.435 11.028 36.435zM18.159 26.526l1.509 1.312 -1.339 1.468 0.022-0.027 -1.572-1.237 0.04-0.048L18.159 26.526 18.159 26.526zM27.703 18.838l1.067 1.691 -0.688 0.411 -0.957 0.638 -1.149-1.638 1.038-0.691L27.703 18.838 27.703 18.838zM38.875 13.911l0.623 1.9 -1.407 0.423 -0.454 0.162 -0.716-1.868 0.547-0.194L38.875 13.911 38.875 13.911zM50.931 11.957l0.14 1.995 -1.667 0.075 -0.281 0.026 -0.237-1.985 0.378-0.036L50.931 11.957 50.931 11.957zM63.092 13.051l-0.343 1.971 -1.962-0.391 0.343-1.971L63.092 13.051 63.092 13.051zM74.63 17.166l-0.878 1.797 -0.573-0.297L71.99 18.12l0.793-1.837 1.273 0.586L74.63 17.166 74.63 17.166zM84.744 23.988l-1.27 1.545 -1.169-1.007 -0.323-0.253 1.195-1.603 0.397 0.31L84.744 23.988 84.744 23.988zM92.844 33.181l-1.655 1.123 -0.129-0.201 -0.996-1.394 1.599-1.202 1.053 1.473L92.844 33.181 92.844 33.181zM98.233 44.141l-1.882 0.678 -0.314-0.949 -0.344-0.885 1.845-0.772 0.381 0.98L98.233 44.141 98.233 44.141zM100.145 57.104l-8.549-12.606 0.403 0.106 0.4 0.096 0.398 0.084 0.396 0.073 0.394 0.061 0.392 0.05 0.389 0.038 0.387 0.026 0.385 0.016 0.383 0.004 0.38-0.008 0.378-0.02 0.376-0.031 0.374-0.043 0.372-0.054 0.369-0.065 0.367-0.076 0.365-0.089 0.363-0.1 0.36-0.112 0.358-0.122 0.356-0.135 0.354-0.146 0.352-0.157 0.349-0.169 0.347-0.181 0.345-0.192 0.343-0.203 0.34-0.215 0.338-0.227 0.336-0.238 0.333-0.249 0 0L100.145 57.104z"/></svg>
