<svg xmlns="http://www.w3.org/2000/svg" version="1.1" id="Layer_1" x="0px" y="0px" width="494.666px" height="92.667px" viewBox="0 0 494.666 92.667" enable-background="new 0 0 494.666 92.667" xml:space="preserve"><path id="_x33_" fill-rule="evenodd" clip-rule="evenodd" fill="#96AB62" d="M85.925 69.912l15.23-1.92c1.046 5.143 3.915 7.683 8.621 7.652 2.148-0.017 3.885-0.562 5.22-1.642 1.323-1.077 1.985-2.53 1.972-4.346 -0.009-1.21-0.384-2.262-1.107-3.185 -0.736-0.91-1.517-1.553-2.352-1.912 -0.835-0.374-2.255-0.547-4.285-0.533l-7.104 0.048 -0.086-11.746 5.994-0.042c3.2-0.021 5.242-0.584 6.154-1.688 0.898-1.102 1.343-2.245 1.335-3.427 -0.012-1.493-0.59-2.726-1.737-3.704 -1.148-0.975-2.642-1.457-4.499-1.445 -4.004 0.028-6.429 2.182-7.274 6.479l-14.149-2.056c1.249-5.284 3.937-9.368 8.065-12.253 4.131-2.882 9.044-4.353 14.717-4.39 6.401-0.043 11.541 1.37 15.45 4.228 3.909 2.856 5.868 6.699 5.902 11.496 0.021 2.883-0.78 5.409-2.401 7.572 -1.622 2.148-3.715 3.597-6.239 4.36 7.031 2.019 10.571 6.398 10.62 13.166 0.003 0.283-0.001 0.562-0.011 0.839 -0.068 0.253-0.104 0.521-0.104 0.8v0.402c0 0.055 0 0.108 0.004 0.164 -0.486 4.33-2.552 7.801-6.197 10.386 -4.245 3.013-9.759 4.541-16.557 4.588C97.471 87.896 89.067 81.932 85.925 69.912z"/><path id="iB" fill-rule="evenodd" clip-rule="evenodd" fill="#FFFFFF" d="M34.776 5.169h30.615c18.141 0 27.224 5.907 27.224 17.705 0 5.853-3.097 10.73-9.312 14.597 8.996 3.241 13.506 9.009 13.506 17.318 0 6.36-2.655 11.432-7.966 15.211 -2.59 1.793-5.372 3.05-8.322 3.763 -2.972 0.713-6.954 1.081-11.968 1.081h-4.762V56.932h4.255c2.509 0 4.277-0.261 5.309-0.784 1.033-0.54 1.54-1.462 1.54-2.786 0-2.248-2.087-3.381-6.28-3.381h-4.824V31.408c4.613 0 6.911-1.324 6.911-3.938 0-2.42-2.086-3.624-6.237-3.624h-4.636v50.997H34.776V5.169zM25.038 21.961l-5.121 2.808v50.306h9.607V21.927L25.038 21.961zM12.823 15.706c0-2.96 2.657-5.36 5.934-5.36 3.276 0 5.933 2.4 5.933 5.36s-2.657 5.362-5.933 5.362C15.479 21.068 12.823 18.666 12.823 15.706zM17.599 75.069H7.847V21.927l4.486 0.034 5.265 2.888V75.069z"/><path id="title" fill="#FFFFFF" d="M157 63.196V34.988h3.056v28.208H157zM166.499 63.196V43.783c2.769-1.375 5.741-2.065 8.921-2.065 2.659 0 4.719 0.679 6.185 2.026 1.468 1.349 2.202 3.249 2.202 5.7v13.752h-3.059V49.444c0-0.594-0.062-1.119-0.186-1.578 -0.122-0.464-0.366-0.954-0.724-1.479 -0.356-0.524-0.936-0.928-1.734-1.209 -0.794-0.283-1.803-0.422-3.017-0.422 -1.771 0-3.629 0.283-5.55 0.848v17.592H166.499zM187.585 44.879v-2.787h3.673v-5.966h3.057v5.966h5.452v2.787h-5.452v12.867c0 1.071 0.227 1.826 0.674 2.26 0.446 0.435 1.234 0.65 2.364 0.65 0.866 0 1.673-0.166 2.414-0.494v2.867c-0.896 0.333-1.79 0.498-2.686 0.498 -0.041 0-0.075 0-0.102 0 -0.562 0-1.113-0.06-1.652-0.187 -0.535-0.123-1.145-0.368-1.816-0.732 -0.674-0.365-1.218-0.978-1.632-1.837 -0.413-0.862-0.621-1.926-0.621-3.193V44.879H187.585zM203.299 52.915c0-0.028 0-0.079 0-0.146 0-0.07 0-0.125 0-0.166 0-7.256 3.09-10.886 9.274-10.886 1.29 0 2.463 0.206 3.519 0.611 1.053 0.407 1.889 0.884 2.508 1.437 0.617 0.55 1.164 1.271 1.63 2.158 0.471 0.886 0.804 1.639 1.005 2.26 0.198 0.618 0.353 1.372 0.463 2.251 0.109 0.853 0.164 1.391 0.164 1.61v0.911l-0.083 1.485h-15.384c0.192 2.118 0.84 3.659 1.943 4.616 1.101 0.953 2.734 1.433 4.894 1.433 3.067 0 5.484-0.52 7.249-1.569v3.14c-2.04 0.978-4.509 1.467-7.414 1.467 -0.042 0-0.084 0-0.125 0 -1.24 0-2.374-0.148-3.406-0.446 -1.033-0.294-2.048-0.809-3.047-1.538 -0.999-0.727-1.778-1.825-2.343-3.294C203.578 56.786 203.299 55.006 203.299 52.915zM206.395 51.735h12.349c0-0.48-0.059-1.019-0.174-1.611 -0.117-0.59-0.351-1.352-0.702-2.279 -0.352-0.929-0.985-1.706-1.901-2.324 -0.917-0.621-2.045-0.93-3.393-0.93 -2.095 0-3.613 0.543-4.556 1.63C207.072 47.309 206.532 49.149 206.395 51.735zM226.073 52.542c0-2.204 0.299-4.074 0.89-5.605 0.592-1.536 1.389-2.655 2.385-3.358 1-0.701 1.95-1.186 2.85-1.456 0.901-0.268 1.849-0.404 2.843-0.404 1.8 0 3.314 0.253 4.54 0.757 1.225 0.503 2.087 1.147 2.583 1.941 0.492 0.792 0.828 1.476 1 2.055 0.171 0.577 0.258 1.149 0.258 1.713v15.899c0 0.937-0.132 1.8-0.402 2.582 -0.269 0.786-0.714 1.552-1.33 2.303 -0.623 0.751-1.569 1.335-2.841 1.753 -1.271 0.423-2.812 0.633-4.615 0.633 -1.97 0-3.971-0.255-6.011-0.763v-2.872c1.803 0.512 3.696 0.763 5.681 0.763 1.349 0 2.479-0.116 3.396-0.36 0.917-0.24 1.581-0.584 1.991-1.033 0.412-0.444 0.693-0.891 0.845-1.333 0.155-0.436 0.229-0.97 0.229-1.587v-2.107c-1.583 0.508-3.234 0.765-4.955 0.765 -0.935 0-1.812-0.082-2.622-0.238 -0.812-0.156-1.644-0.471-2.489-0.938 -0.848-0.467-1.572-1.075-2.179-1.819 -0.604-0.743-1.095-1.731-1.476-2.971C226.263 55.618 226.073 54.182 226.073 52.542zM229.111 52.542c0 1.583 0.168 2.887 0.504 3.91 0.339 1.026 0.836 1.787 1.486 2.286 0.655 0.495 1.312 0.822 1.973 0.989 0.663 0.167 1.439 0.249 2.335 0.249 1.695 0 3.345-0.324 4.955-0.974V48.06c0-2.364-1.774-3.552-5.324-3.552 -0.761 0-1.435 0.089-2.027 0.269 -0.591 0.18-1.211 0.522-1.858 1.032 -0.646 0.51-1.149 1.336-1.509 2.478C229.29 49.429 229.111 50.85 229.111 52.542zM249.326 63.196V43.783c3.181-1.35 6.595-2.021 10.243-2.021v2.911c-2.314 0.053-4.715 0.419-7.208 1.095v17.428H249.326zM262.355 56.732c0-0.965 0.176-1.828 0.528-2.588 0.351-0.767 0.781-1.389 1.29-1.86 0.509-0.478 1.156-0.881 1.939-1.22 0.786-0.336 1.482-0.585 2.088-0.742 0.607-0.16 1.324-0.279 2.157-0.361 0.833-0.083 1.426-0.131 1.777-0.145 0.353-0.016 0.767-0.022 1.247-0.022l3.389 0.207c0-1.884-0.519-3.232-1.561-4.036 -1.038-0.806-2.576-1.208-4.615-1.208 -2.286 0-4.342 0.336-6.175 1.012v-2.954c2.081-0.73 4.193-1.097 6.34-1.097 2.961 0 5.216 0.749 6.773 2.241 1.56 1.494 2.336 3.683 2.336 6.56v6.34c0 1.348-0.317 2.501-0.941 3.455 -0.626 0.959-1.433 1.651-2.416 2.078 -0.983 0.428-1.905 0.725-2.766 0.889 -0.86 0.165-1.714 0.247-2.552 0.247 -0.646 0-1.309-0.042-1.993-0.124 -0.68-0.083-1.45-0.271-2.312-0.567 -0.859-0.297-1.605-0.676-2.239-1.137s-1.174-1.12-1.621-1.981C262.581 58.857 262.355 57.86 262.355 56.732zM265.392 56.732c0 2.644 1.915 3.963 5.741 3.963 0.015 0 0.036 0 0.062 0 3.746 0 5.614-1.276 5.614-3.837v-4.07c-0.933-0.164-2.187-0.246-3.756-0.246C267.947 52.542 265.392 53.939 265.392 56.732zM283.088 44.879v-2.787h3.679v-5.966h3.055v5.966h5.453v2.787h-5.453v12.867c0 1.071 0.223 1.826 0.671 2.26 0.449 0.435 1.233 0.65 2.365 0.65 0.864 0 1.672-0.166 2.417-0.494v2.867c-0.896 0.333-1.788 0.498-2.688 0.498 -0.039 0-0.074 0-0.101 0 -0.564 0-1.117-0.06-1.654-0.187 -0.537-0.123-1.141-0.368-1.817-0.732 -0.671-0.365-1.22-0.978-1.629-1.837 -0.415-0.862-0.619-1.926-0.619-3.193V44.879H283.088zM300.085 38.334v-3.346h3.366v3.346H300.085zM300.249 42.092h3.036v21.104h-3.036V42.092zM309.564 58.105c-0.594-1.506-0.891-3.336-0.891-5.481 0-2.146 0.297-3.975 0.891-5.482 0.591-1.508 1.397-2.634 2.415-3.376 1.018-0.744 2.052-1.27 3.109-1.582 1.052-0.308 2.216-0.466 3.488-0.466s2.442 0.158 3.51 0.466c1.067 0.312 2.107 0.838 3.128 1.582 1.021 0.742 1.825 1.868 2.415 3.376 0.593 1.508 0.889 3.336 0.889 5.482 0 2.146-0.296 3.976-0.889 5.481 -0.59 1.509-1.395 2.636-2.415 3.379 -1.021 0.742-2.061 1.268-3.128 1.578s-2.237 0.465-3.51 0.465 -2.437-0.154-3.488-0.465c-1.058-0.311-2.092-0.836-3.109-1.578C310.962 60.741 310.155 59.614 309.564 58.105zM313.362 46.452c-1.086 1.293-1.631 3.349-1.631 6.172s0.545 4.881 1.631 6.173c1.087 1.296 2.829 1.944 5.225 1.944s4.142-0.642 5.234-1.924c1.095-1.278 1.643-3.344 1.643-6.193 0-2.852-0.548-4.916-1.643-6.195 -1.093-1.281-2.839-1.921-5.234-1.921S314.449 45.155 313.362 46.452zM333.37 63.196V43.783c2.767-1.375 5.741-2.065 8.92-2.065 2.657 0 4.722 0.679 6.191 2.026 1.463 1.349 2.194 3.249 2.194 5.7v13.752h-3.057V49.444c0-0.594-0.062-1.119-0.187-1.578 -0.124-0.464-0.364-0.954-0.723-1.479s-0.938-0.928-1.733-1.209c-0.8-0.283-1.805-0.422-3.014-0.422 -1.777 0-3.629 0.283-5.558 0.848v17.592H333.37zM372.42 63.196V34.988h9.353c6.251 0 9.378 2.515 9.378 7.538 0 0.783-0.104 1.514-0.312 2.187 -0.207 0.677-0.455 1.212-0.749 1.615 -0.298 0.396-0.585 0.744-0.869 1.042 -0.28 0.294-0.541 0.498-0.775 0.608l-0.291 0.205c0.14 0.027 0.309 0.084 0.51 0.164 0.202 0.085 0.573 0.31 1.122 0.684 0.551 0.372 1.029 0.794 1.441 1.271 0.404 0.474 0.774 1.147 1.113 2.021 0.336 0.877 0.502 1.836 0.502 2.879 0 5.333-3.406 7.994-10.223 7.994H372.42zM375.475 47.213h6.982c1.718 0 3.095-0.296 4.121-0.885 1.023-0.595 1.535-1.777 1.535-3.554 0-1.833-0.496-3.103-1.494-3.812 -0.999-0.709-2.519-1.062-4.556-1.062h-6.589V47.213zM375.475 60.367h7.394c2.151 0 3.843-0.375 5.082-1.124 1.237-0.751 1.856-2.152 1.856-4.204 0-0.865-0.145-1.612-0.439-2.24 -0.296-0.626-0.661-1.112-1.09-1.465 -0.424-0.352-0.975-0.619-1.649-0.807 -0.675-0.186-1.303-0.307-1.879-0.361 -0.58-0.055-1.246-0.082-2.006-0.082h-7.269V60.367zM397.776 63.196V43.783c3.181-1.35 6.597-2.021 10.242-2.021v2.911c-2.31 0.053-4.715 0.419-7.205 1.095v17.428H397.776zM412.314 38.334v-3.346h3.367v3.346H412.314zM412.481 42.092h3.035v21.104h-3.035V42.092zM420.782 52.376c0-2.092 0.283-3.871 0.848-5.34 0.562-1.464 1.35-2.562 2.345-3.292 1-0.73 2.013-1.241 3.045-1.538 1.033-0.299 2.169-0.443 3.405-0.443 1.859 0 3.607 0.269 5.246 0.806v-8.507h3.034v22.838c0 0.564-0.082 1.144-0.247 1.73 -0.165 0.595-0.509 1.302-1.033 2.119 -0.521 0.82-1.419 1.486-2.683 2.003 -1.268 0.518-2.828 0.775-4.687 0.775 -0.785 0-1.552-0.069-2.302-0.207 -0.75-0.135-1.56-0.446-2.435-0.929 -0.876-0.484-1.632-1.107-2.267-1.88 -0.631-0.77-1.17-1.855-1.611-3.252C421.002 55.862 420.782 54.236 420.782 52.376zM423.819 52.376c0 1.775 0.191 3.265 0.578 4.461 0.384 1.198 0.911 2.058 1.59 2.582 0.672 0.521 1.319 0.87 1.938 1.054 0.621 0.178 1.33 0.269 2.131 0.269 3.743 0 5.615-1.239 5.615-3.72V45.604c-1.721-0.705-3.468-1.054-5.246-1.054 -2.312 0-3.994 0.619-5.039 1.858C424.341 47.646 423.819 49.637 423.819 52.376zM443.768 52.542c0-2.204 0.294-4.074 0.886-5.605 0.595-1.536 1.393-2.655 2.391-3.358 0.997-0.701 1.945-1.186 2.848-1.456 0.903-0.268 1.846-0.404 2.835-0.404 1.805 0 3.316 0.253 4.545 0.757 1.224 0.503 2.084 1.147 2.58 1.941 0.495 0.792 0.834 1.476 1.004 2.055 0.175 0.577 0.254 1.149 0.254 1.713v15.899c0 0.937-0.128 1.8-0.396 2.582 -0.27 0.786-0.717 1.552-1.334 2.303 -0.623 0.751-1.565 1.335-2.838 1.753 -1.276 0.423-2.814 0.633-4.619 0.633 -1.968 0-3.972-0.255-6.009-0.763v-2.872c1.804 0.512 3.696 0.763 5.68 0.763 1.347 0 2.485-0.116 3.398-0.36 0.917-0.24 1.577-0.584 1.987-1.033 0.418-0.444 0.7-0.891 0.847-1.333 0.153-0.436 0.231-0.97 0.231-1.587v-2.107c-1.587 0.508-3.238 0.765-4.956 0.765 -0.938 0-1.812-0.082-2.626-0.238 -0.81-0.156-1.637-0.471-2.483-0.938 -0.846-0.467-1.577-1.075-2.182-1.819 -0.606-0.743-1.095-1.731-1.474-2.971C443.959 55.618 443.768 54.182 443.768 52.542zM446.802 52.542c0 1.583 0.172 2.887 0.511 3.91 0.336 1.026 0.829 1.787 1.484 2.286 0.653 0.495 1.309 0.822 1.969 0.989s1.438 0.249 2.335 0.249c1.691 0 3.347-0.324 4.956-0.974V48.06c0-2.364-1.779-3.552-5.33-3.552 -0.756 0-1.431 0.089-2.022 0.269s-1.213 0.522-1.86 1.032 -1.148 1.336-1.506 2.478C446.979 49.429 446.802 50.85 446.802 52.542zM466.109 52.915c0-0.028 0-0.079 0-0.146 0-0.07 0-0.125 0-0.166 0-7.256 3.089-10.886 9.271-10.886 1.295 0 2.472 0.206 3.525 0.611 1.051 0.407 1.886 0.884 2.504 1.437 0.617 0.55 1.165 1.271 1.631 2.158 0.47 0.886 0.805 1.639 1.006 2.26 0.2 0.618 0.351 1.372 0.46 2.251 0.109 0.853 0.165 1.391 0.165 1.61v0.911l-0.083 1.485h-15.382c0.191 2.118 0.836 3.659 1.94 4.616 1.102 0.953 2.733 1.433 4.894 1.433 3.069 0 5.485-0.52 7.249-1.569v3.14c-2.038 0.978-4.508 1.467-7.412 1.467 -0.045 0-0.084 0-0.128 0 -1.236 0-2.372-0.148-3.404-0.446 -1.032-0.294-2.046-0.809-3.043-1.538 -0.998-0.727-1.782-1.825-2.346-3.294C466.394 56.786 466.109 55.006 466.109 52.915zM469.207 51.735h12.348c0-0.48-0.055-1.019-0.173-1.611 -0.115-0.59-0.353-1.352-0.702-2.279 -0.352-0.929-0.983-1.706-1.897-2.324 -0.916-0.621-2.051-0.93-3.401-0.93 -2.093 0-3.608 0.543-4.553 1.63C469.89 47.309 469.342 49.149 469.207 51.735zM479.17 36.213v-0.65h5.026v0.65h-2.173v5.501h-0.669v-5.501H479.17zM485.142 41.714v-6.151h0.721l2.121 3.123 2.128-3.123h0.722v6.151h-0.666v-5.061l-2.184 3.143 -2.173-3.143v5.061H485.142z"/></svg>