<svg xmlns="http://www.w3.org/2000/svg" xmlns:xlink="http://www.w3.org/1999/xlink" version="1.1" id="Layer_1" x="0" y="0" width="527" height="128" viewBox="0 0 527 128" enable-background="new 0 0 527 128" xml:space="preserve"><g id="logo"><defs><rect id="SVGID_1_" x="12.76" y="11.32" width="201.55" height="105.37"/></defs><clipPath id="SVGID_2_"><use xlink:href="#SVGID_1_" overflow="visible"/></clipPath><linearGradient id="SVGID_3_" gradientUnits="userSpaceOnUse" x1="12.76" y1="51.63" x2="214.31" y2="51.63"><stop offset="0" stop-color="#0F223E"/><stop offset="1" stop-color="#008AD5"/></linearGradient><rect x="12.76" y="11.17" clip-path="url(#SVGID_2_)" fill="url(#SVGID_3_)" width="201.55" height="80.93"/><path clip-path="url(#SVGID_2_)" fill-rule="evenodd" clip-rule="evenodd" fill="#8594AB" d="M110.96 96.47c62.21-65.79 27.44-66.73-89.9-59.12 48.89-10.43 176.34-7.5 89.9-37.59 55.75 18.53 68.85 22.64 177.04 35.64v1.25C179.81 27.41 166.71 39.49 110.96 96.47z"/><rect id="green" x="12.76" y="91.18" clip-path="url(#SVGID_2_)" fill="#96AB62" width="201.55" height="25.5"/><linearGradient id="dark_gradient_1_" gradientUnits="userSpaceOnUse" x1="12.76" y1="90.63" x2="214.31" y2="90.63"><stop offset="0" stop-color="#001630"/><stop offset="1" stop-color="#00679D"/></linearGradient><line id="dark_gradient" clip-path="url(#SVGID_2_)" fill="none" stroke="url(#dark_gradient_1_)" stroke-width="2" stroke-miterlimit="10" x1="12.76" y1="90.63" x2="214.31" y2="90.63"/></g><path id="performance" fill="#FFFFFF" d="M227.27 114.97V100.78c0-0.28 0.03-0.57 0.08-0.85 0.05-0.28 0.18-0.64 0.39-1.07s0.5-0.81 0.86-1.14c0.36-0.33 0.9-0.61 1.63-0.85 0.72-0.24 1.56-0.35 2.52-0.35 0.49 0 0.97 0.04 1.44 0.13 0.47 0.09 0.98 0.28 1.54 0.58 0.56 0.3 1.04 0.69 1.44 1.18 0.41 0.48 0.74 1.16 1.01 2.04 0.27 0.87 0.41 1.88 0.41 3.03 0 1.31-0.18 2.43-0.54 3.35s-0.85 1.61-1.48 2.06c-0.63 0.45-1.27 0.77-1.92 0.96s-1.37 0.29-2.15 0.29c-0.97 0-1.91-0.13-2.8-0.39v5.21H227.27zM229.7 107.45c0.91 0.35 1.85 0.53 2.8 0.53 0.54 0 1-0.05 1.39-0.15 0.38-0.1 0.76-0.3 1.13-0.59s0.65-0.75 0.85-1.38c0.19-0.62 0.29-1.41 0.29-2.37 0-1.02-0.1-1.87-0.29-2.55 -0.19-0.68-0.47-1.17-0.83-1.48 -0.36-0.31-0.72-0.52-1.07-0.63 -0.35-0.11-0.76-0.17-1.22-0.17 -2.03 0-3.05 0.66-3.05 1.98V107.45zM241.66 103.51c0-4.65 1.94-6.98 5.83-6.98 0.01 0 0.02 0 0.03 0 1.77 0 3.18 0.58 4.23 1.73s1.58 2.7 1.58 4.64c0 0.64-0.03 1.25-0.08 1.83h-9.09c0.29 2.24 1.53 3.36 3.72 3.36 1.78 0 3.3-0.33 4.56-0.98v2.2c-1.36 0.58-2.9 0.87-4.61 0.87 -0.02 0-0.05 0-0.08 0 -0.77 0-1.49-0.1-2.14-0.29 -0.65-0.19-1.29-0.51-1.92-0.96 -0.62-0.45-1.12-1.13-1.48-2.06S241.66 104.82 241.66 103.51zM244.11 102.54h6.78c-0.04-0.44-0.11-0.86-0.23-1.26 -0.12-0.4-0.29-0.81-0.53-1.22 -0.24-0.41-0.58-0.74-1.03-0.99 -0.45-0.24-0.98-0.37-1.6-0.37 -1.11 0-1.93 0.29-2.45 0.86C244.54 100.13 244.23 101.13 244.11 102.54zM256.44 109.94V97.85c2.2-0.88 4.35-1.32 6.43-1.32v2.22c-1.31 0.02-2.64 0.2-4 0.56v10.63H256.44zM265.3 98.86v-2.12h1.85v-0.63c0-3.28 1.46-4.92 4.39-4.92 0.49 0 0.97 0.06 1.43 0.18v2.09c-0.35-0.07-0.68-0.1-0.98-0.1 -0.4 0-0.71 0.02-0.92 0.05s-0.45 0.13-0.73 0.29c-0.28 0.16-0.47 0.44-0.59 0.83 -0.12 0.4-0.18 0.92-0.18 1.58v0.63h3.41v2.12h-3.41v11.08h-2.42V98.86H265.3zM275.04 106.77c-0.37-0.93-0.56-2.07-0.56-3.42 0-1.34 0.19-2.48 0.56-3.42 0.37-0.93 0.87-1.63 1.51-2.1 0.64-0.46 1.29-0.79 1.96-0.99 0.67-0.19 1.4-0.29 2.2-0.29s1.53 0.1 2.2 0.29c0.67 0.19 1.32 0.52 1.96 0.99s1.14 1.17 1.51 2.1 0.56 2.07 0.56 3.42c0 1.34-0.19 2.48-0.56 3.42 -0.37 0.94-0.87 1.64-1.51 2.1s-1.29 0.8-1.96 0.99 -1.4 0.29-2.2 0.29 -1.53-0.1-2.2-0.29c-0.67-0.19-1.32-0.52-1.96-0.99C275.91 108.4 275.41 107.7 275.04 106.77zM277.22 100.9c-0.19 0.64-0.29 1.46-0.29 2.45s0.1 1.81 0.29 2.45c0.19 0.64 0.48 1.12 0.87 1.43 0.39 0.31 0.78 0.52 1.18 0.62 0.4 0.1 0.88 0.16 1.44 0.16 0.56 0 1.04-0.05 1.44-0.15s0.79-0.31 1.18-0.62c0.39-0.31 0.68-0.79 0.87-1.43 0.19-0.64 0.29-1.46 0.29-2.45s-0.1-1.81-0.29-2.45c-0.19-0.64-0.48-1.12-0.87-1.43 -0.39-0.31-0.78-0.52-1.18-0.62s-0.88-0.15-1.44-0.15c-0.56 0-1.04 0.05-1.44 0.16 -0.4 0.1-0.79 0.31-1.17 0.62C277.7 99.79 277.41 100.26 277.22 100.9zM290.13 109.94V97.85c2.2-0.88 4.35-1.32 6.43-1.32v2.22c-1.31 0.02-2.64 0.2-4 0.56v10.63H290.13zM299.34 109.94V97.82c1.77-0.88 3.6-1.32 5.49-1.32 1.43 0 2.61 0.33 3.53 0.99 1.66-0.66 3.28-0.99 4.85-0.99 1.66 0 2.96 0.44 3.89 1.31 0.93 0.87 1.4 2.08 1.4 3.64v8.49h-2.4v-8.65c0-0.76-0.19-1.37-0.56-1.83 -0.37-0.47-1.09-0.7-2.17-0.7 -1.16 0-2.34 0.25-3.54 0.74 0.21 0.56 0.31 1.19 0.31 1.89 0 0.03 0 0.05 0 0.08v8.49h-2.43v-8.63c0-0.77-0.2-1.39-0.61-1.83 -0.41-0.45-1.22-0.67-2.43-0.67 -0.94 0-1.9 0.13-2.88 0.4v10.74H299.34zM321.58 105.78c0-1.31 0.55-2.33 1.65-3.07 1.1-0.74 2.62-1.1 4.56-1.1 0.83 0 1.63 0.05 2.4 0.16 -0.05-1.11-0.35-1.91-0.91-2.39s-1.47-0.72-2.73-0.72c-1.15 0-2.36 0.22-3.65 0.66v-2.07c1.25-0.47 2.58-0.71 3.99-0.71 1.83 0 3.25 0.48 4.25 1.43 1 0.95 1.5 2.32 1.5 4.1v3.81c0 0.28-0.03 0.57-0.08 0.85 -0.06 0.28-0.19 0.64-0.4 1.08 -0.21 0.44-0.5 0.82-0.86 1.15 -0.36 0.33-0.9 0.61-1.63 0.85 -0.72 0.24-1.56 0.36-2.51 0.36 -0.97 0-1.83-0.12-2.56-0.37 -0.73-0.25-1.28-0.53-1.65-0.86 -0.37-0.33-0.66-0.71-0.88-1.16 -0.22-0.45-0.35-0.82-0.41-1.11S321.58 106.06 321.58 105.78zM323.99 105.75c0 1.5 1.06 2.25 3.18 2.25 0.01 0 0.02 0 0.04 0 2 0 3-0.72 3-2.16V103.7c-0.64-0.1-1.4-0.16-2.3-0.17 -0.35 0-0.72 0.03-1.11 0.1s-0.8 0.17-1.25 0.3 -0.82 0.37-1.11 0.69C324.13 104.94 323.99 105.31 323.99 105.75zM336.16 109.94V97.87c1.84-0.91 3.71-1.37 5.63-1.37 1.66 0 2.97 0.44 3.91 1.31 0.94 0.87 1.42 2.08 1.42 3.62v8.51h-2.44v-8.68c0-0.77-0.2-1.39-0.59-1.83 -0.4-0.45-1.19-0.67-2.39-0.67 -1.08 0-2.11 0.16-3.1 0.48v10.71H336.16zM351.81 108.39c-1.07-1.17-1.6-2.86-1.6-5.06 0-2.2 0.53-3.89 1.6-5.05 1.07-1.16 2.61-1.74 4.61-1.74 1.34 0 2.64 0.25 3.89 0.74v2.3c-1.2-0.58-2.41-0.87-3.63-0.87 -0.02 0-0.04 0-0.05 0 -1.22 0-2.17 0.31-2.85 0.94 -0.69 0.63-1.03 1.85-1.03 3.69 0 0.97 0.1 1.78 0.3 2.42 0.2 0.64 0.5 1.12 0.9 1.43 0.4 0.31 0.81 0.52 1.21 0.62s0.9 0.16 1.47 0.16c1.27 0 2.49-0.28 3.68-0.84v2.3c-1.25 0.49-2.54 0.74-3.89 0.74C354.42 110.15 352.88 109.56 351.81 108.39zM362.61 103.51c0-4.65 1.94-6.98 5.83-6.98 0.01 0 0.02 0 0.03 0 1.77 0 3.18 0.58 4.23 1.73s1.58 2.7 1.58 4.64c0 0.64-0.03 1.25-0.08 1.83h-9.09c0.29 2.24 1.53 3.36 3.72 3.36 1.78 0 3.3-0.33 4.56-0.98v2.2c-1.36 0.58-2.9 0.87-4.61 0.87 -0.02 0-0.05 0-0.08 0 -0.77 0-1.49-0.1-2.14-0.29 -0.65-0.19-1.29-0.51-1.92-0.96 -0.62-0.45-1.12-1.13-1.48-2.06S362.61 104.82 362.61 103.51zM365.07 102.54h6.78c-0.04-0.44-0.11-0.86-0.23-1.26 -0.12-0.4-0.29-0.81-0.53-1.22 -0.24-0.41-0.58-0.74-1.03-0.99 -0.45-0.24-0.98-0.37-1.6-0.37 -1.11 0-1.93 0.29-2.45 0.86C365.5 100.13 365.18 101.13 365.07 102.54zM386.15 103.25c0-2.05 0.46-3.69 1.39-4.91s2.35-1.83 4.27-1.83c1.6 0 2.89 0.36 3.85 1.09s1.45 1.75 1.45 3.09v9.82c0 0.59-0.08 1.13-0.25 1.63 -0.17 0.5-0.45 0.99-0.85 1.47 -0.4 0.48-0.99 0.85-1.79 1.12s-1.77 0.41-2.91 0.41c-1.33 0-2.63-0.19-3.91-0.56v-2.3c1.25 0.39 2.48 0.58 3.71 0.58 0.84 0 1.53-0.07 2.06-0.23 0.53-0.15 0.9-0.37 1.1-0.65 0.2-0.28 0.33-0.52 0.37-0.71 0.04-0.19 0.06-0.45 0.06-0.77v-1.16c-0.9 0.25-1.78 0.38-2.66 0.38 -1.89 0-3.34-0.56-4.35-1.67C386.66 106.93 386.15 105.33 386.15 103.25zM388.58 103.25c0 1.71 0.31 2.85 0.92 3.42 0.61 0.56 1.46 0.85 2.53 0.85 0.95 0 1.83-0.17 2.66-0.5v-6.48c0-0.2-0.02-0.37-0.05-0.5s-0.13-0.33-0.29-0.58c-0.16-0.25-0.45-0.44-0.88-0.57 -0.43-0.13-0.98-0.19-1.65-0.19 -0.44 0-0.82 0.05-1.15 0.16 -0.33 0.1-0.66 0.3-1.01 0.59s-0.61 0.76-0.79 1.4C388.67 101.47 388.58 102.27 388.58 103.25zM400.7 104.39v-7.65h2.4v7.83c0 1.2 0.26 2.08 0.77 2.64 0.51 0.56 1.32 0.84 2.41 0.84s1.89-0.28 2.4-0.83 0.76-1.44 0.76-2.64v-7.83h2.43v7.65c0 1.83-0.49 3.26-1.47 4.27s-2.35 1.52-4.11 1.52 -3.14-0.51-4.11-1.52S400.7 106.22 400.7 104.39zM414.91 105.78c0-1.31 0.55-2.33 1.65-3.07 1.1-0.74 2.62-1.1 4.56-1.1 0.83 0 1.63 0.05 2.4 0.16 -0.05-1.11-0.35-1.91-0.91-2.39s-1.47-0.72-2.73-0.72c-1.15 0-2.36 0.22-3.65 0.66v-2.07c1.25-0.47 2.58-0.71 3.99-0.71 1.83 0 3.25 0.48 4.25 1.43 1 0.95 1.5 2.32 1.5 4.1v3.81c0 0.28-0.03 0.57-0.08 0.85 -0.06 0.28-0.19 0.64-0.4 1.08 -0.21 0.44-0.5 0.82-0.86 1.15 -0.36 0.33-0.9 0.61-1.63 0.85 -0.72 0.24-1.56 0.36-2.51 0.36 -0.97 0-1.83-0.12-2.56-0.37 -0.73-0.25-1.28-0.53-1.65-0.86 -0.37-0.33-0.66-0.71-0.88-1.16 -0.22-0.45-0.35-0.82-0.41-1.11S414.91 106.06 414.91 105.78zM417.31 105.75c0 1.5 1.06 2.25 3.18 2.25 0.01 0 0.02 0 0.04 0 2 0 3-0.72 3-2.16V103.7c-0.64-0.1-1.4-0.16-2.3-0.17 -0.35 0-0.72 0.03-1.11 0.1s-0.8 0.17-1.25 0.3 -0.82 0.37-1.11 0.69C417.46 104.94 417.31 105.31 417.31 105.75zM429.36 109.94V97.85c2.2-0.88 4.35-1.32 6.43-1.32v2.22c-1.31 0.02-2.64 0.2-4 0.56v10.63H429.36zM437.51 105.78c0-1.31 0.55-2.33 1.65-3.07 1.1-0.74 2.62-1.1 4.56-1.1 0.83 0 1.63 0.05 2.4 0.16 -0.05-1.11-0.35-1.91-0.91-2.39s-1.47-0.72-2.73-0.72c-1.15 0-2.36 0.22-3.65 0.66v-2.07c1.25-0.47 2.58-0.71 3.99-0.71 1.83 0 3.25 0.48 4.25 1.43 1 0.95 1.5 2.32 1.5 4.1v3.81c0 0.28-0.03 0.57-0.08 0.85 -0.06 0.28-0.19 0.64-0.4 1.08 -0.21 0.44-0.5 0.82-0.86 1.15 -0.36 0.33-0.9 0.61-1.63 0.85 -0.72 0.24-1.56 0.36-2.51 0.36 -0.97 0-1.83-0.12-2.56-0.37 -0.73-0.25-1.28-0.53-1.65-0.86 -0.37-0.33-0.66-0.71-0.88-1.16 -0.22-0.45-0.35-0.82-0.41-1.11S437.51 106.06 437.51 105.78zM439.92 105.75c0 1.5 1.06 2.25 3.18 2.25 0.01 0 0.02 0 0.04 0 2 0 3-0.72 3-2.16V103.7c-0.64-0.1-1.4-0.16-2.3-0.17 -0.35 0-0.72 0.03-1.11 0.1s-0.8 0.17-1.25 0.3 -0.82 0.37-1.11 0.69C440.06 104.94 439.92 105.31 439.92 105.75zM452.08 109.94V97.87c1.84-0.91 3.71-1.37 5.63-1.37 1.66 0 2.97 0.44 3.91 1.31 0.94 0.87 1.42 2.08 1.42 3.62v8.51h-2.44v-8.68c0-0.77-0.2-1.39-0.59-1.83 -0.4-0.45-1.19-0.67-2.39-0.67 -1.08 0-2.11 0.16-3.1 0.48v10.71H452.08zM465.39 98.78v-2.04h2.3v-3.94h2.42v3.94h3.51v2.04h-3.51v7.67c0 1.03 0.65 1.55 1.95 1.55 0.01 0 0.02 0 0.03 0 0.6 0 1.12-0.13 1.54-0.39v2.17c-0.6 0.24-1.21 0.36-1.81 0.36 -0.02 0-0.04 0-0.06 0 -0.32 0-0.66-0.04-1.02-0.12 -0.36-0.08-0.79-0.23-1.3-0.46s-0.92-0.62-1.25-1.19c-0.33-0.56-0.49-1.26-0.49-2.1v-7.5H465.39zM475.98 103.51c0-4.65 1.94-6.98 5.83-6.98 0.01 0 0.02 0 0.03 0 1.77 0 3.18 0.58 4.23 1.73s1.58 2.7 1.58 4.64c0 0.64-0.03 1.25-0.08 1.83h-9.09c0.29 2.24 1.53 3.36 3.72 3.36 1.78 0 3.3-0.33 4.56-0.98v2.2c-1.36 0.58-2.9 0.87-4.61 0.87 -0.02 0-0.05 0-0.08 0 -0.77 0-1.49-0.1-2.14-0.29 -0.65-0.19-1.29-0.51-1.92-0.96 -0.62-0.45-1.12-1.13-1.48-2.06S475.98 104.82 475.98 103.51zM478.44 102.54h6.78c-0.04-0.44-0.11-0.86-0.23-1.26 -0.12-0.4-0.29-0.81-0.53-1.22 -0.24-0.41-0.58-0.74-1.03-0.99 -0.45-0.24-0.98-0.37-1.6-0.37 -1.11 0-1.93 0.29-2.45 0.86C478.87 100.13 478.55 101.13 478.44 102.54zM490.5 103.51c0-4.65 1.94-6.98 5.83-6.98 0.01 0 0.02 0 0.03 0 1.77 0 3.18 0.58 4.23 1.73s1.58 2.7 1.58 4.64c0 0.64-0.03 1.25-0.08 1.83h-9.09c0.29 2.24 1.53 3.36 3.72 3.36 1.78 0 3.3-0.33 4.56-0.98v2.2c-1.36 0.58-2.9 0.87-4.61 0.87 -0.02 0-0.05 0-0.08 0 -0.77 0-1.49-0.1-2.14-0.29 -0.65-0.19-1.29-0.51-1.92-0.96 -0.62-0.45-1.12-1.13-1.48-2.06S490.5 104.82 490.5 103.51zM492.96 102.54h6.78c-0.04-0.44-0.11-0.86-0.23-1.26 -0.12-0.4-0.29-0.81-0.53-1.22 -0.24-0.41-0.58-0.74-1.03-0.99 -0.45-0.24-0.98-0.37-1.6-0.37 -1.11 0-1.93 0.29-2.45 0.86C493.39 100.13 493.07 101.13 492.96 102.54zM504.75 103.17c0-1.31 0.18-2.42 0.54-3.34s0.85-1.6 1.48-2.06c0.62-0.46 1.26-0.78 1.92-0.96 0.65-0.18 1.36-0.28 2.12-0.28 0.96 0 1.9 0.13 2.83 0.39v-5.21h2.42v14.16c0 0.28-0.03 0.57-0.08 0.85 -0.06 0.28-0.19 0.64-0.4 1.08s-0.5 0.82-0.86 1.15c-0.36 0.33-0.9 0.61-1.61 0.85 -0.71 0.24-1.55 0.36-2.49 0.36 -0.51 0-1-0.04-1.47-0.13 -0.47-0.09-0.98-0.28-1.54-0.58 -0.56-0.3-1.03-0.69-1.43-1.18 -0.4-0.48-0.73-1.16-1.01-2.03C504.89 105.35 504.75 104.33 504.75 103.17zM507.15 103.17c0 1.02 0.1 1.88 0.29 2.55 0.19 0.68 0.47 1.17 0.83 1.48 0.36 0.31 0.72 0.52 1.07 0.63 0.35 0.11 0.77 0.17 1.25 0.17 2.03 0 3.04-0.66 3.04-1.98V99.23c-0.9-0.37-1.84-0.56-2.83-0.56 -0.53 0-0.98 0.05-1.38 0.16 -0.39 0.1-0.77 0.3-1.14 0.59s-0.65 0.75-0.85 1.38C507.25 101.42 507.15 102.21 507.15 103.17z"/><path id="integration_manager" fill-rule="evenodd" clip-rule="evenodd" fill="#FFFFFF" d="M123.52 99.29v11.12h-1.53v-9.15l-5.01 5.67 -4.99-5.67v9.15h-1.53V99.29h1.66l4.86 5.65 4.88-5.65H123.52zM133.03 99.29h-1.53l-5.65 11.12h1.66l1.7-3.46h6.11l1.7 3.46h1.64L133.03 99.29 133.03 99.29zM134.75 105.79l-2.48-5.09 -2.48 5.09H134.75zM151.22 99.29v9.37l-8.45-9.36h-1.74v11.12h1.53v-9.36l8.47 9.37h1.72V99.29H151.22zM162.57 99.29h-1.53l-5.65 11.12h1.66l1.7-3.46h6.11l1.7 3.46h1.63L162.57 99.29 162.57 99.29zM164.29 105.79l-2.48-5.09 -2.48 5.09H164.29zM176.16 105.53h3.42v3.46c-1.04 0.27-2.12 0.4-3.25 0.4 -3.59 0-5.2-1.4-5.2-4.54 0-3.13 1.61-4.54 5.2-4.54 1.51 0 2.95 0.25 4.29 0.72v-1.16c-1.4-0.47-2.91-0.7-4.46-0.7 -4.35 0-6.56 1.91-6.56 5.69 0 3.78 2.21 5.69 6.56 5.69 1.74 0 3.4-0.28 4.94-0.86v-5.31h-4.94V105.53zM186.05 100.42h7.41v-1.13h-8.94v11.12h8.94v-1.13h-7.41v-3.84h6.52v-1.16h-6.52V100.42zM203.15 105.74c0.66-0.1 3.25-0.66 3.25-3.22 0-2.14-1.74-3.24-4.8-3.24h-5.2v11.12h1.53v-4.48h3.61l3.69 4.48h1.81L203.15 105.74 203.15 105.74zM204.87 102.61c0-1.02-0.38-2.19-3.35-2.19h-3.59v4.38h3.59C204.49 104.79 204.87 103.63 204.87 102.61zM25.1 66.08v25.89h2.79V66.08H25.1zM41.99 72.28c-4.03 0-7.25 1.44-8.18 1.9v17.79h2.79V75.85c1.32-0.39 3.1-0.77 5.08-0.77 4.65 0 5.19 2.48 5.19 4.3v12.59h2.79V79.37C49.66 74.88 46.87 72.28 41.99 72.28zM59.31 75.19h5v-2.56h-5v-5.46h-2.79v5.46h-3.37v2.56h3.37v11.63c0 4.96 3.64 5.46 5.23 5.46 0.97 0 1.82-0.19 2.56-0.46v-2.63c-0.58 0.27-1.28 0.47-2.21 0.47 -2.05 0-2.79-0.74-2.79-2.67V75.19zM76.05 72.28c-8.8 0-8.49 8.22-8.49 10.27 0 8.06 4.81 9.73 8.84 9.73 2.75 0 5.04-0.46 6.9-1.36v-2.87c-1.63 0.97-3.8 1.43-6.62 1.43 -3.99 0-5.93-1.67-6.28-5.54h14.1c0 0 0.08-0.62 0.08-1.35C84.58 81.85 84.85 72.28 76.05 72.28L76.05 72.28zM81.71 81.47c0-0.93-0.31-6.55-5.66-6.55 -3.8 0-5.39 1.78-5.66 6.55H81.71zM96.67 72.28c-3.06 0-8.21 1.32-8.21 9.92 0 7.79 4.65 9.42 8.56 9.42 1.55 0 3.1-0.23 4.53-0.7v1.94c0 1.94-0.7 3.95-5.93 3.95 -2.17 0-3.95-0.35-5.19-0.7v2.64c1.4 0.35 3.25 0.7 5.5 0.7 6.94 0 8.41-3.6 8.41-6.66V78.21C104.34 76.82 103.8 72.28 96.67 72.28L96.67 72.28zM101.55 78.1c0-2.17-1.63-3.25-4.88-3.25 -2.32 0-5.42 0.77-5.42 7.36 0 6.01 2.91 6.82 5.77 6.82 1.59 0 3.1-0.31 4.53-0.89V78.1zM119.14 75v-2.67c-4.65 0-8.37 1.43-9.38 1.86v17.79h2.79V76C114.14 75.58 116.47 75.07 119.14 75zM129.41 72.28c-2.4 0-4.38 0.5-5.81 1.01v2.71c0.74-0.27 2.87-0.93 5.66-0.93 3.49 0 5.66 1.16 5.66 4.81 0 0-1.36-0.19-3.1-0.19 -1.78 0-10.11-0.04-10.11 6.35 0 5.47 5.58 6.24 8.1 6.24 2.52 0 7.94-0.77 7.94-6.12v-5.81C137.74 75.07 134.83 72.28 129.41 72.28L129.41 72.28zM134.95 82.44c0 0-1.28-0.23-3.45-0.23 -2.33 0-7.01 0.27-7.01 3.84 0 3.06 2.91 3.64 5.31 3.64s5.15-0.58 5.15-3.52C134.95 83.17 134.95 82.44 134.95 82.44zM146.89 75.19h5v-2.56h-5v-5.46h-2.79v5.46h-3.37v2.56h3.37v11.63c0 4.96 3.64 5.46 5.23 5.46 0.97 0 1.82-0.19 2.56-0.46v-2.63c-0.58 0.27-1.28 0.47-2.21 0.47 -2.05 0-2.79-0.74-2.79-2.67V75.19zM159.25 91.97V72.6h-2.79v19.37H159.25L159.25 91.97zM159.4 69.14h-3.1v-3.06h3.1V69.14zM173.27 72.28c-4.15 0-9.07 1.74-9.07 10s4.92 10 9.07 10c4.15 0 9.11-1.74 9.11-10S177.42 72.28 173.27 72.28L173.27 72.28zM179.59 82.28c0-5.19-1.9-7.44-6.31-7.44 -4.38 0-6.28 2.25-6.28 7.44s1.9 7.44 6.28 7.44C177.69 89.72 179.59 87.47 179.59 82.28zM195.01 72.28c-4.03 0-7.25 1.44-8.18 1.9v17.79h2.79V75.85c1.32-0.39 3.1-0.77 5.08-0.77 4.65 0 5.19 2.48 5.19 4.3v12.59h2.79V79.37C202.68 74.88 199.89 72.28 195.01 72.28z"/></svg>