<svg xmlns="http://www.w3.org/2000/svg" version="1.1" id="Layer_1" x="0px" y="0px" width="527px" height="128px" viewBox="0 0 527 128" enable-background="new 0 0 527 128" xml:space="preserve"><path id="_x33_" fill-rule="evenodd" clip-rule="evenodd" fill="#96AB62" d="M133.284 95.356l14.822-2.014c1.02 5.396 3.811 8.062 8.391 8.029 2.092-0.016 3.779-0.588 5.082-1.721 1.285-1.131 1.93-2.658 1.918-4.561 -0.01-1.27-0.373-2.375-1.076-3.346 -0.719-0.953-1.477-1.627-2.289-2.006 -0.814-0.393-2.195-0.574-4.172-0.559l-6.914 0.051 -0.084-12.328 5.832-0.043c3.115-0.023 5.104-0.615 5.99-1.773 0.875-1.158 1.307-2.355 1.299-3.596 -0.01-1.566-0.574-2.861-1.689-3.887 -1.117-1.025-2.572-1.531-4.379-1.518 -3.896 0.029-6.256 2.289-7.08 6.799l-13.77-2.156c1.215-5.547 3.83-9.834 7.85-12.861 4.02-3.025 8.803-4.566 14.322-4.607 6.23-0.047 11.232 1.438 15.037 4.438 3.805 2.998 5.709 7.031 5.744 12.064 0.02 3.027-0.758 5.676-2.336 7.947 -1.578 2.256-3.617 3.777-6.072 4.576 6.844 2.121 10.287 6.717 10.336 13.818 0.002 0.297-0.002 0.59-0.012 0.879 -0.066 0.268-0.102 0.551-0.102 0.84v0.426c0 0.057 0.002 0.113 0.004 0.17 -0.473 4.547-2.482 8.188-6.031 10.902 -4.131 3.16-9.498 4.766-16.111 4.814C144.522 114.231 136.343 107.974 133.284 95.356z"/><path id="TM" fill-rule="evenodd" clip-rule="evenodd" fill="#FFFFFF" d="M140.433 97.515h-1.008v3.613h-0.891v-3.613h-1.004v-0.467h2.902V97.515L140.433 97.515zM145.769 101.128h-0.822l-0.33-2.611h-0.021l-0.9 2.611h-0.553l-0.854-2.611h-0.025l-0.348 2.611h-0.826l0.646-4.08h0.764l0.922 2.859h0.021l0.939-2.859h0.766L145.769 101.128z"/><path id="B" fill-rule="evenodd" clip-rule="evenodd" fill="#FFFFFF" d="M80.206 18.728h32.896c19.494 0 29.252 6.844 29.252 20.512 0 6.783-3.328 12.436-10.008 16.918 9.668 3.754 14.512 10.436 14.512 20.066 0 7.367-2.852 13.242-8.557 17.623 -2.785 2.08-5.773 3.533-8.943 4.361 -3.193 0.828-7.473 1.25-12.859 1.25h-5.117V78.706h4.574c2.693 0 4.596-0.303 5.705-0.908 1.109-0.627 1.652-1.695 1.652-3.23 0-2.604-2.242-3.916-6.748-3.916h-5.184v-21.52c4.957 0 7.426-1.535 7.426-4.562 0-2.807-2.242-4.199-6.701-4.199h-4.98v59.088h-26.92V18.728z"/><path id="M" fill-rule="evenodd" clip-rule="evenodd" fill="#FFFFFF" stroke="#0067AB" stroke-width="0.75" stroke-miterlimit="2.6131" d="M90.565 99.931H72.079V70.427c0-2.283-0.219-3.855-0.641-4.736 -0.422-0.879-1.197-1.311-2.328-1.311 -2.074 0-3.104 2.041-3.104 6.104v29.447H47.521V70.427c0-2.283-0.219-3.855-0.674-4.736 -0.438-0.879-1.215-1.311-2.344-1.311 -2.042 0-3.054 2.041-3.054 6.104v29.447H22.963V66.253c0-6.141 1.854-11.363 5.583-15.67 3.728-4.287 8.23-6.439 13.545-6.439 5.464 0 10.372 2.564 14.725 7.693 4.84-5.129 9.682-7.693 14.521-7.693 6.174 0 11.116 2.49 14.826 7.469 2.936 3.875 4.402 9.529 4.402 16.943V99.931z"/><path id="MigrationBridge" fill="#FFFFFF" d="M208.634 81.741V53.866h3.265l9.57 14.162 9.612-14.162h3.265v27.875h-3.021V58.805l-9.856 14.202 -9.815-14.202v22.937H208.634zM241.141 57.172v-3.306h3.326v3.306H241.141zM241.304 60.886h3v20.855h-3V60.886zM249.609 71.211c0-2.176 0.293-4.022 0.878-5.54 0.585-1.517 1.37-2.622 2.356-3.316 0.986-0.693 1.925-1.173 2.816-1.438 0.891-0.265 1.826-0.397 2.806-0.397 1.782 0 3.278 0.248 4.489 0.745 1.211 0.496 2.062 1.136 2.551 1.918 0.49 0.782 0.82 1.459 0.99 2.03s0.255 1.136 0.255 1.693v15.714c0 0.925-0.133 1.775-0.397 2.551 -0.266 0.775-0.704 1.533-1.316 2.275 -0.612 0.741-1.548 1.319-2.806 1.734 -1.259 0.414-2.779 0.622-4.562 0.622 -1.945 0-3.925-0.252-5.938-0.755V86.21c1.782 0.504 3.653 0.755 5.612 0.755 1.333 0 2.452-0.119 3.356-0.356 0.905-0.238 1.562-0.579 1.97-1.021 0.408-0.442 0.687-0.881 0.837-1.316 0.149-0.436 0.225-0.959 0.225-1.571v-2.081c-1.565 0.503-3.197 0.755-4.898 0.755 -0.925 0-1.789-0.078-2.591-0.234 -0.804-0.156-1.623-0.466-2.459-0.929 -0.837-0.463-1.555-1.062-2.153-1.796s-1.085-1.714-1.459-2.938S249.609 72.83 249.609 71.211zM252.609 71.211c0 1.565 0.166 2.854 0.5 3.867 0.333 1.014 0.823 1.766 1.47 2.255 0.646 0.49 1.295 0.816 1.948 0.979 0.653 0.164 1.422 0.245 2.306 0.245 1.674 0 3.307-0.319 4.898-0.959V66.783c0-2.34-1.756-3.51-5.266-3.51 -0.748 0-1.415 0.089-2 0.265 -0.585 0.178-1.197 0.518-1.836 1.021 -0.64 0.504-1.137 1.32-1.49 2.449S252.609 69.538 252.609 71.211zM272.588 81.741V62.559c3.143-1.333 6.517-1.999 10.121-1.999v2.877c-2.285 0.055-4.659 0.415-7.121 1.081v17.224H272.588zM285.464 75.354c0-0.951 0.174-1.806 0.521-2.561s0.771-1.367 1.275-1.837c0.503-0.469 1.143-0.87 1.918-1.204 0.775-0.333 1.463-0.578 2.062-0.734s1.309-0.275 2.132-0.357c0.823-0.081 1.408-0.129 1.755-0.143 0.348-0.014 0.759-0.021 1.235-0.021l3.347 0.204c0-1.863-0.514-3.193-1.541-3.989s-2.548-1.193-4.561-1.193c-2.259 0-4.293 0.333-6.102 0.999V61.6c2.054-0.721 4.143-1.081 6.265-1.081 2.925 0 5.155 0.738 6.693 2.214 1.537 1.477 2.306 3.636 2.306 6.479v6.265c0 1.333-0.31 2.473-0.929 3.418s-1.415 1.629-2.387 2.051c-0.974 0.422-1.885 0.714-2.735 0.878 -0.85 0.163-1.69 0.244-2.52 0.244 -0.64 0-1.296-0.04-1.97-0.122 -0.673-0.082-1.436-0.269-2.285-0.562 -0.851-0.292-1.589-0.666-2.214-1.122 -0.626-0.456-1.16-1.108-1.603-1.959C285.685 77.453 285.464 76.47 285.464 75.354zM288.464 75.354c0 2.612 1.891 3.919 5.673 3.919 0.014 0 0.034 0 0.062 0 3.7 0 5.551-1.266 5.551-3.796v-4.021c-0.926-0.163-2.163-0.245-3.715-0.245C290.987 71.211 288.464 72.593 288.464 75.354zM305.952 63.641v-2.755h3.632v-5.897h3.021v5.897h5.388v2.755h-5.388v12.713c0 1.062 0.221 1.807 0.663 2.235 0.442 0.428 1.221 0.643 2.337 0.643 0.857 0 1.652-0.163 2.388-0.49v2.837c-0.885 0.326-1.769 0.489-2.653 0.489 -0.041 0-0.074 0-0.102 0 -0.559 0-1.103-0.061-1.633-0.184 -0.53-0.122-1.129-0.363-1.796-0.725 -0.667-0.359-1.204-0.966-1.612-1.815 -0.408-0.851-0.612-1.901-0.612-3.153v-12.55H305.952zM322.747 57.172v-3.306h3.326v3.306H322.747zM322.91 60.886h3v20.855h-3V60.886zM332.113 76.711c-0.585-1.489-0.877-3.296-0.877-5.418s0.292-3.928 0.877-5.418c0.585-1.489 1.381-2.602 2.388-3.336 1.007-0.735 2.03-1.256 3.071-1.562s2.19-0.459 3.448-0.459c1.259 0 2.415 0.153 3.47 0.459 1.054 0.306 2.084 0.826 3.092 1.562 1.006 0.734 1.802 1.847 2.387 3.336 0.585 1.49 0.878 3.296 0.878 5.418s-0.293 3.929-0.878 5.418 -1.381 2.602-2.387 3.337c-1.008 0.734-2.038 1.255-3.092 1.561 -1.055 0.307-2.211 0.459-3.47 0.459 -1.258 0-2.407-0.152-3.448-0.459 -1.041-0.306-2.064-0.826-3.071-1.561C333.494 79.312 332.698 78.2 332.113 76.711zM335.868 65.191c-1.075 1.279-1.612 3.312-1.612 6.102s0.537 4.823 1.612 6.102c1.074 1.279 2.796 1.918 5.163 1.918s4.092-0.632 5.173-1.897c1.082-1.266 1.622-3.306 1.622-6.122s-0.54-4.856-1.622-6.122c-1.081-1.265-2.806-1.897-5.173-1.897S336.942 63.913 335.868 65.191zM355.643 81.741V62.559c2.734-1.359 5.673-2.04 8.815-2.04 2.625 0 4.663 0.667 6.111 2 1.449 1.333 2.174 3.211 2.174 5.632v13.591h-3.021V68.15c0-0.585-0.062-1.105-0.184-1.562 -0.122-0.455-0.36-0.941-0.714-1.459 -0.354-0.517-0.926-0.914-1.715-1.193 -0.789-0.278-1.782-0.418-2.979-0.418 -1.755 0-3.584 0.278-5.489 0.836v17.387H355.643zM394.231 81.741V53.866h9.244c6.176 0 9.265 2.482 9.265 7.448 0 0.775-0.103 1.496-0.307 2.163s-0.452 1.197-0.745 1.592c-0.292 0.395-0.578 0.738-0.856 1.03 -0.279 0.293-0.534 0.493-0.766 0.602l-0.285 0.204c0.136 0.027 0.302 0.082 0.5 0.164 0.196 0.081 0.567 0.306 1.111 0.673s1.018 0.786 1.419 1.255c0.4 0.47 0.769 1.137 1.102 2 0.333 0.864 0.5 1.813 0.5 2.847 0 5.265-3.367 7.897-10.102 7.897H394.231zM397.251 65.946h6.897c1.7 0 3.058-0.292 4.071-0.877s1.521-1.755 1.521-3.51c0-1.81-0.493-3.064-1.479-3.766 -0.986-0.7-2.486-1.051-4.5-1.051h-6.51V65.946zM397.251 78.945h7.306c2.122 0 3.796-0.37 5.021-1.112 1.224-0.741 1.836-2.125 1.836-4.152 0-0.857-0.146-1.595-0.438-2.214 -0.293-0.619-0.649-1.103-1.071-1.449s-0.966-0.612-1.633-0.796c-0.666-0.184-1.285-0.303-1.856-0.357 -0.571-0.054-1.231-0.081-1.979-0.081h-7.184V78.945zM419.291 81.741V62.559c3.143-1.333 6.517-1.999 10.121-1.999v2.877c-2.285 0.055-4.659 0.415-7.121 1.081v17.224H419.291zM433.656 57.172v-3.306h3.326v3.306H433.656zM433.819 60.886h3v20.855h-3V60.886zM442.023 71.048c0-2.067 0.278-3.826 0.836-5.274 0.558-1.449 1.33-2.534 2.316-3.255 0.986-0.722 1.99-1.228 3.01-1.521 1.021-0.293 2.143-0.438 3.367-0.438 1.837 0 3.564 0.265 5.184 0.796v-8.408h3v22.57c0 0.558-0.082 1.129-0.245 1.714s-0.504 1.282-1.021 2.092c-0.518 0.81-1.401 1.469-2.652 1.979 -1.252 0.51-2.796 0.765-4.633 0.765 -0.775 0-1.534-0.068-2.275-0.204s-1.544-0.441-2.408-0.918c-0.863-0.476-1.608-1.095-2.234-1.857 -0.626-0.762-1.156-1.833-1.592-3.214C442.24 74.494 442.023 72.885 442.023 71.048zM445.022 71.048c0 1.755 0.19 3.225 0.571 4.408s0.905 2.034 1.572 2.551c0.666 0.518 1.306 0.864 1.918 1.041s1.312 0.265 2.102 0.265c3.7 0 5.551-1.224 5.551-3.673V64.354c-1.701-0.693-3.429-1.04-5.184-1.04 -2.285 0-3.945 0.612-4.979 1.836C445.54 66.375 445.022 68.341 445.022 71.048zM464.735 71.211c0-2.176 0.293-4.022 0.878-5.54 0.585-1.517 1.37-2.622 2.356-3.316 0.986-0.693 1.925-1.173 2.816-1.438 0.891-0.265 1.826-0.397 2.806-0.397 1.782 0 3.278 0.248 4.489 0.745 1.211 0.496 2.062 1.136 2.551 1.918 0.49 0.782 0.82 1.459 0.99 2.03s0.255 1.136 0.255 1.693v15.714c0 0.925-0.133 1.775-0.397 2.551 -0.266 0.775-0.704 1.533-1.316 2.275 -0.612 0.741-1.548 1.319-2.806 1.734 -1.259 0.414-2.779 0.622-4.562 0.622 -1.945 0-3.925-0.252-5.938-0.755V86.21c1.782 0.504 3.653 0.755 5.612 0.755 1.333 0 2.452-0.119 3.356-0.356 0.905-0.238 1.562-0.579 1.97-1.021 0.408-0.442 0.687-0.881 0.837-1.316 0.149-0.436 0.225-0.959 0.225-1.571v-2.081c-1.565 0.503-3.197 0.755-4.898 0.755 -0.925 0-1.789-0.078-2.591-0.234 -0.804-0.156-1.623-0.466-2.459-0.929 -0.837-0.463-1.555-1.062-2.153-1.796s-1.085-1.714-1.459-2.938S464.735 72.83 464.735 71.211zM467.735 71.211c0 1.565 0.166 2.854 0.5 3.867 0.333 1.014 0.823 1.766 1.47 2.255 0.646 0.49 1.295 0.816 1.948 0.979 0.653 0.164 1.422 0.245 2.306 0.245 1.674 0 3.307-0.319 4.898-0.959V66.783c0-2.34-1.756-3.51-5.266-3.51 -0.748 0-1.415 0.089-2 0.265 -0.585 0.178-1.197 0.518-1.836 1.021 -0.64 0.504-1.137 1.32-1.49 2.449S467.735 69.538 467.735 71.211zM486.816 71.579c0-0.027 0-0.075 0-0.144 0-0.067 0-0.122 0-0.163 0-7.169 3.054-10.754 9.162-10.754 1.278 0 2.438 0.201 3.479 0.602 1.041 0.401 1.867 0.875 2.479 1.419s1.149 1.255 1.612 2.132c0.462 0.878 0.792 1.622 0.989 2.234s0.351 1.354 0.459 2.225c0.109 0.844 0.163 1.374 0.163 1.592v0.897l-0.081 1.47h-15.203c0.19 2.095 0.83 3.615 1.918 4.561 1.089 0.946 2.701 1.419 4.837 1.419 3.033 0 5.421-0.518 7.162-1.552v3.103c-2.014 0.966-4.455 1.448-7.325 1.448 -0.041 0-0.082 0-0.123 0 -1.225 0-2.347-0.146-3.367-0.438 -1.02-0.292-2.023-0.799-3.01-1.521 -0.986-0.721-1.759-1.806-2.316-3.255C487.095 75.405 486.816 73.646 486.816 71.579zM489.877 70.416h12.203c0-0.477-0.058-1.007-0.174-1.592 -0.115-0.585-0.347-1.337-0.693-2.255 -0.347-0.919-0.973-1.684-1.877-2.296 -0.905-0.612-2.024-0.919-3.357-0.919 -2.068 0-3.568 0.538-4.5 1.612C490.547 66.042 490.013 67.858 489.877 70.416z"/></svg>