<svg xmlns="http://www.w3.org/2000/svg" version="1.1" id="Layer_1" x="0px" y="0px" width="175.362px" height="48.416px" viewBox="0 0 175.362 48.416" enable-background="new 0 0 175.362 48.416" xml:space="preserve"><path id="_x33_" fill-rule="evenodd" clip-rule="evenodd" fill="#96AB62" d="M147.211 37.932l8.923-1.125c0.613 3.013 2.294 4.501 5.051 4.483 1.259-0.01 2.276-0.329 3.059-0.962 0.775-0.631 1.163-1.482 1.155-2.546 -0.005-0.709-0.225-1.325-0.648-1.866 -0.432-0.533-0.889-0.909-1.378-1.12 -0.489-0.219-1.321-0.32-2.511-0.312l-4.162 0.028 -0.051-6.882 3.512-0.024c1.875-0.013 3.071-0.343 3.605-0.989 0.526-0.646 0.787-1.315 0.782-2.008 -0.007-0.874-0.346-1.597-1.018-2.17 -0.673-0.571-1.548-0.854-2.636-0.847 -2.346 0.017-3.767 1.278-4.262 3.796l-8.29-1.205c0.731-3.096 2.307-5.488 4.726-7.179 2.42-1.688 5.299-2.549 8.622-2.571 3.75-0.026 6.762 0.803 9.052 2.477s3.438 3.925 3.458 6.735c0.013 1.689-0.457 3.169-1.406 4.437 -0.95 1.259-2.177 2.107-3.655 2.555 4.119 1.183 6.193 3.749 6.222 7.714 0.002 0.166-0.001 0.329-0.007 0.491 -0.04 0.148-0.061 0.306-0.061 0.469v0.235c0 0.032 0 0.064 0.003 0.097 -0.285 2.537-1.495 4.57-3.631 6.085 -2.487 1.765-5.718 2.66-9.7 2.688C153.976 48.468 149.052 44.974 147.211 37.932z"/><path id="iB" fill-rule="evenodd" clip-rule="evenodd" fill="#FFFFFF" d="M117.244 0h17.937c10.629 0 15.95 3.461 15.95 10.372 0 3.43-1.814 6.288-5.456 8.553 5.271 1.898 7.913 5.277 7.913 10.146 0 3.727-1.556 6.697-4.667 8.911 -1.518 1.051-3.147 1.787-4.876 2.205 -1.741 0.418-4.074 0.633-7.012 0.633h-2.79V30.327h2.493c1.47 0 2.506-0.152 3.11-0.459 0.605-0.316 0.902-0.856 0.902-1.633 0-1.317-1.223-1.98-3.679-1.98h-2.827V15.373c2.703 0 4.049-0.775 4.049-2.307 0-1.418-1.222-2.123-3.654-2.123h-2.716v29.877h-14.678V0zM111.539 9.838l-3 1.645v29.474h5.629V9.817L111.539 9.838zM104.382 6.174c0-1.735 1.557-3.141 3.477-3.141 1.919 0 3.476 1.406 3.476 3.141 0 1.734-1.557 3.141-3.476 3.141C105.938 9.315 104.382 7.908 104.382 6.174zM107.18 40.954h-5.713V9.817l2.628 0.021 3.085 1.691V40.954z"/><g id="powered_by"><path fill="#FFFFFF" d="M0 36.867V28.42c0-0.21 0.032-0.427 0.097-0.647 0.064-0.221 0.192-0.486 0.385-0.798 0.192-0.31 0.526-0.562 1.001-0.754 0.475-0.192 1.06-0.289 1.753-0.289 0.293 0 0.58 0.025 0.86 0.076 0.28 0.052 0.583 0.167 0.909 0.347 0.326 0.181 0.607 0.417 0.844 0.709 0.236 0.294 0.435 0.7 0.597 1.223 0.162 0.521 0.243 1.128 0.243 1.821 0 0.781-0.105 1.445-0.316 1.992 -0.211 0.548-0.502 0.957-0.875 1.229 -0.373 0.272-0.751 0.463-1.137 0.573s-0.809 0.166-1.271 0.166c-0.643 0-1.294-0.1-1.958-0.301v3.099H0zM1.133 32.621c0.601 0.262 1.253 0.393 1.958 0.393 0.863 0 1.49-0.228 1.88-0.686 0.391-0.458 0.586-1.202 0.586-2.235 0-0.662-0.071-1.214-0.212-1.656 -0.142-0.442-0.339-0.763-0.593-0.963s-0.497-0.334-0.729-0.4c-0.231-0.066-0.493-0.101-0.786-0.101 -1.397 0-2.098 0.468-2.104 1.402V32.621z"/><path fill="#FFFFFF" d="M8.646 32.046C8.425 31.484 8.315 30.802 8.315 30s0.11-1.484 0.331-2.046c0.221-0.562 0.521-0.982 0.902-1.26 0.38-0.278 0.766-0.474 1.159-0.591 0.393-0.115 0.828-0.172 1.303-0.172 0.475 0 0.912 0.057 1.31 0.172 0.398 0.117 0.787 0.312 1.167 0.591 0.38 0.277 0.681 0.697 0.901 1.26C15.61 28.516 15.72 29.199 15.72 30s-0.11 1.483-0.332 2.046c-0.221 0.562-0.521 0.982-0.901 1.26 -0.38 0.278-0.77 0.474-1.167 0.589 -0.398 0.116-0.835 0.174-1.31 0.174 -0.475 0-0.91-0.058-1.303-0.174 -0.393-0.115-0.779-0.311-1.159-0.589C9.167 33.029 8.867 32.609 8.646 32.046zM10.064 27.696C9.658 28.179 9.456 28.948 9.456 30s0.203 1.821 0.608 2.304 1.056 0.725 1.95 0.725 1.545-0.239 1.954-0.717c0.408-0.478 0.612-1.248 0.612-2.312 0-1.064-0.204-1.834-0.612-2.312 -0.409-0.478-1.06-0.717-1.954-0.717S10.47 27.213 10.064 27.696z"/><path fill="#FFFFFF" d="M16.791 26.07h1.194l2.012 6.096 1.811-6.096h1.086l1.834 6.096 2.004-6.096h1.202l-2.62 7.876h-1.156l-1.796-5.887 -1.803 5.887h-1.148L16.791 26.07z"/><path fill="#FFFFFF" d="M29.128 30.108c0-0.01 0-0.028 0-0.054s0-0.046 0-0.062c0-2.707 1.153-4.061 3.46-4.061 0.483 0 0.921 0.075 1.314 0.227 0.393 0.152 0.705 0.33 0.936 0.536 0.231 0.205 0.434 0.474 0.609 0.806 0.175 0.331 0.299 0.612 0.374 0.843 0.074 0.231 0.132 0.512 0.173 0.84 0.041 0.319 0.062 0.52 0.062 0.602v0.339l-0.031 0.555h-5.741c0.072 0.792 0.313 1.365 0.725 1.723s1.02 0.536 1.827 0.536c1.145 0 2.047-0.196 2.705-0.586v1.171c-0.761 0.365-1.683 0.547-2.767 0.547 -0.016 0-0.031 0-0.046 0 -0.462 0-0.886-0.056-1.271-0.166s-0.764-0.301-1.137-0.573c-0.372-0.272-0.664-0.682-0.875-1.229C29.233 31.553 29.128 30.889 29.128 30.108zM30.284 29.668h4.608c0-0.18-0.022-0.38-0.065-0.601 -0.044-0.222-0.131-0.505-0.262-0.852 -0.13-0.347-0.367-0.636-0.709-0.866 -0.341-0.232-0.764-0.348-1.268-0.348 -0.781 0-1.347 0.204-1.699 0.609C30.537 28.018 30.335 28.703 30.284 29.668z"/><path fill="#FFFFFF" d="M37.944 33.946v-7.243c1.187-0.504 2.46-0.756 3.822-0.756v1.087c-0.863 0.021-1.759 0.156-2.689 0.408v6.504H37.944z"/><path fill="#FFFFFF" d="M42.875 30.108c0-0.01 0-0.028 0-0.054s0-0.046 0-0.062c0-2.707 1.153-4.061 3.459-4.061 0.483 0 0.921 0.075 1.314 0.227 0.393 0.152 0.705 0.33 0.937 0.536 0.231 0.205 0.434 0.474 0.608 0.806 0.175 0.331 0.299 0.612 0.375 0.843 0.074 0.231 0.132 0.512 0.173 0.84 0.041 0.319 0.062 0.52 0.062 0.602v0.339l-0.031 0.555h-5.741c0.072 0.792 0.313 1.365 0.725 1.723 0.411 0.357 1.02 0.536 1.826 0.536 1.146 0 2.047-0.196 2.705-0.586v1.171c-0.76 0.365-1.683 0.547-2.767 0.547 -0.015 0-0.031 0-0.046 0 -0.462 0-0.887-0.056-1.271-0.166 -0.385-0.11-0.764-0.301-1.137-0.573s-0.664-0.682-0.875-1.229C42.98 31.553 42.875 30.889 42.875 30.108zM44.031 29.668h4.608c0-0.18-0.021-0.38-0.065-0.601 -0.043-0.222-0.131-0.505-0.262-0.852 -0.131-0.347-0.367-0.636-0.708-0.866 -0.342-0.232-0.764-0.348-1.268-0.348 -0.781 0-1.347 0.204-1.699 0.609C44.285 28.018 44.083 28.703 44.031 29.668z"/><path fill="#FFFFFF" d="M51.375 29.908c0-0.78 0.105-1.445 0.316-1.992 0.21-0.547 0.502-0.957 0.875-1.229 0.373-0.272 0.751-0.464 1.137-0.574 0.385-0.111 0.809-0.166 1.271-0.166 0.694 0 1.346 0.101 1.957 0.301v-3.175h1.133v8.522c0 0.212-0.031 0.427-0.093 0.647s-0.19 0.484-0.385 0.79c-0.196 0.306-0.529 0.555-1.001 0.747 -0.473 0.192-1.056 0.289-1.75 0.289 -0.292 0-0.579-0.025-0.859-0.077 -0.28-0.051-0.583-0.166-0.909-0.347 -0.326-0.18-0.608-0.413-0.844-0.7 -0.237-0.289-0.437-0.693-0.601-1.214C51.457 31.208 51.375 30.602 51.375 29.908zM52.508 29.908c0 0.663 0.072 1.218 0.215 1.665 0.144 0.446 0.342 0.768 0.594 0.963 0.251 0.195 0.493 0.326 0.725 0.393 0.231 0.067 0.496 0.101 0.793 0.101 1.398 0 2.096-0.463 2.096-1.387V27.38c-0.642-0.263-1.294-0.394-1.957-0.394 -0.863 0-1.49 0.232-1.88 0.694S52.508 28.886 52.508 29.908z"/><path fill="#FFFFFF" d="M65.885 31.581v-8.523h1.132v3.19c0.632-0.211 1.28-0.315 1.942-0.315 0.36 0 0.698 0.03 1.013 0.092 0.316 0.062 0.637 0.183 0.964 0.362 0.326 0.18 0.607 0.411 0.844 0.694 0.236 0.282 0.427 0.666 0.574 1.151 0.146 0.485 0.219 1.044 0.219 1.676 0 0.694-0.081 1.301-0.243 1.823 -0.162 0.521-0.361 0.925-0.597 1.214 -0.236 0.287-0.52 0.521-0.852 0.7 -0.332 0.181-0.637 0.296-0.917 0.347 -0.28 0.052-0.566 0.077-0.859 0.077 -0.57 0-1.066-0.07-1.487-0.212 -0.421-0.141-0.737-0.304-0.947-0.489 -0.211-0.185-0.382-0.405-0.513-0.663 -0.131-0.256-0.209-0.469-0.235-0.635C65.898 31.903 65.885 31.739 65.885 31.581zM67.018 31.642c0.005 0.924 0.702 1.387 2.088 1.387 0.293 0 0.558-0.033 0.794-0.101 0.236-0.066 0.481-0.197 0.736-0.393s0.452-0.517 0.593-0.963c0.142-0.447 0.212-1.002 0.212-1.665 0-1.021-0.195-1.765-0.585-2.227 -0.391-0.462-1.022-0.694-1.896-0.694 -0.652 0-1.299 0.131-1.942 0.394V31.642z"/><path fill="#FFFFFF" d="M73.599 26.07h1.217l2.242 6.234 2.273-6.234h1.217l-3.221 8.646c-0.561 1.517-1.387 2.273-2.481 2.273 -0.252 0-0.498-0.045-0.74-0.139v-1.04c0.21 0.093 0.437 0.139 0.678 0.139 0.201 0 0.398-0.072 0.594-0.22 0.195-0.146 0.355-0.322 0.481-0.527 0.125-0.205 0.242-0.413 0.347-0.624 0.105-0.211 0.178-0.391 0.22-0.539l0.077-0.217L73.599 26.07z"/></g></svg>
