<svg xmlns="http://www.w3.org/2000/svg" width="52" height="52" viewBox="0 0 52 52"><circle fill-rule="evenodd" clip-rule="evenodd" fill="#98C93C" stroke="#fff" stroke-miterlimit="22.926" cx="26" cy="26" r="25.5"/><path fill-rule="evenodd" clip-rule="evenodd" fill="#fff" d="M13.826 34.054c0-.483.157-1.036.316-1.357.093-.187.166-.352.29-.523.374-.513.78-.894 1.355-1.182 1.01-.503 2.145-.52 3.153-.016.402.203.65.407.96.714.97.96 1.29 2.603.668 3.858-.557 1.126-1.69 2.035-3.032 2.035-.69 0-1.102-.027-1.726-.354-.248-.13-.833-.53-.996-.73-.595-.72-.988-1.41-.988-2.45zm-4.842-7.872l.045 7.013c0 2.372.22 3.81 1.55 5.73l1.37 1.52c.123.112.265.216.403.32.165.12.272.203.447.32 4.146 2.76 9.98 1.127 12.13-3.517.326-.7.607-1.624.695-2.43.406-3.704-1.41-6.948-4.75-8.597-1.58-.78-3.62-.96-5.35-.55-.32.08-.558.13-.867.22-.29.09-.6.17-.844.29 0-1.42.1-5.32-.12-6.48-.2-1.06-.77-1.98-2.05-1.98-.595 0-1.034-.03-1.564.29-.252.15-.48.39-.622.65-.3.55-.44 1.31-.436 2.14.005 1.73-.046 3.33-.046 5.07zm8.19-14.39c0 .95.024 1.868.952 2.396.586.336 1.392.5 2.308.498l1.31.09c.437.015.833.09 1.254.15.746.11 1.608.317 2.282.523 1.407.43 2.696 1.02 3.854 1.71.315.18.56.35.854.55.28.18.562.37.816.58l1.845 1.64.98 1.09c.43.49 1.09 1.45 1.44 2.04l.75 1.374c.826 1.653 1.366 3.473 1.64 5.33.086.585.185 2.28.25 2.56.242 1.103 1.084 1.855 2.35 1.855.93 0 1.56-.058 2.25-.647.102-.09.18-.204.263-.32.507-.698.427-1.586.427-2.427 0-.97-.133-1.95-.276-2.8-.14-.82-.352-1.723-.6-2.48-.262-.806-.51-1.5-.83-2.246-.58-1.35-1.394-2.744-2.23-3.924-.702-.998-.936-1.17-1.52-1.92-.322-.42-1.12-1.2-1.52-1.553-.08-.067-.13-.127-.204-.203l-.82-.72c-.99-.8-1.596-1.246-2.684-1.93-.72-.456-1.725-.997-2.494-1.354-1.822-.844-3.902-1.464-5.9-1.79-.994-.167-3.198-.34-4.313-.308-.42.01-.97.14-1.268.27-.737.33-1.176 1.136-1.176 1.95zm-.045 8.824c0 2.695 2.68 2.354 4.28 2.643 1.6.28 2.94.89 4.15 1.86 1.89 1.53 2.96 3.81 3.2 6.25.09 1.004.18 1.78 1.03 2.4.84.61 3.4.76 4.16-.95.53-1.19.046-3.604-.217-4.626-.42-1.636-1.526-3.803-2.69-5.047l-1.063-1.11-1.19-.977c-2.158-1.63-4.688-2.543-7.37-2.994-.43-.074-1.11-.18-1.583-.18-1.714 0-2.716 1-2.716 2.714z"/></svg>