<svg xmlns="http://www.w3.org/2000/svg" version="1.1" id="Layer_1" x="0" y="0" width="52" height="52" viewBox="0 0 52 52" enable-background="new 0 0 52 52" xml:space="preserve"><circle fill="#FFFFFF" stroke="#999999" stroke-width="0.52" stroke-miterlimit="10" cx="26" cy="26" r="25.5"/><path fill-rule="evenodd" clip-rule="evenodd" fill="#999999" d="M26.83 44.24l15.78-2.55 -4.47-5.27c-3.68 1.16-11.45 6.59-16.29 7.87 -1.45-1.33-6.07-6.76-7-8.22l-0.13-0.08c0.41 2.75 2.71 4.28 4.35 6.32C22.15 46.2 22.05 45.15 26.83 44.24"/><linearGradient id="SVGID_1_" gradientUnits="userSpaceOnUse" x1="14.84" y1="38.86" x2="42.43" y2="38.86"><stop offset="0" stop-color="#E0DDDD"/><stop offset="1" stop-color="#F5F5F5"/></linearGradient><path fill="url(#SVGID_1_)" stroke="#0E598F" stroke-width="0.29" stroke-miterlimit="22.93" d="M14.84 36.12c1.73-0.22 3.47-0.45 5.21-0.67 1.74-0.23 3.68-0.73 5.56-1 1.78-0.26 3.8-0.55 5.55-0.57 1.46-0.02 2.73-0.52 4.49-0.45 0.91 0.04 1.15 1.38 1.71 2.06 0.57 0.68 0.76 1.41 1.32 2.09 0.56 0.68 1.51 1.32 2.07 2 0.56 0.68 1.13 1.35 1.69 2.03 -1.73 0.47-3.43 0.45-5.14 0.68 -1.71 0.23-3.26 0.19-4.98 0.42 -1.71 0.23-3.6 0.72-5.31 0.94 -1.71 0.23-3.44 0.45-5.16 0.68 -0.29-0.33-0.58-0.67-0.87-1.01 -0.29-0.34-0.72-0.65-1.01-0.99 -0.55-0.64-1.09-1.24-1.61-1.84 -0.59-0.68-1.17-1.6-1.75-2.28C16.02 37.5 15.43 36.81 14.84 36.12z"/><path fill-rule="evenodd" clip-rule="evenodd" fill="#126AA9" d="M23.88 32.13c-1.26-3.7 4.63-6.32-1.23-11.32 -5.15-4.4 2.51-10.79-7.32-12.63 -7.74-1.45-4.42 9.61-2.16 11.43 6.07 4.91 6.12 2.67 9.68 10.68C23.01 30.64 23.41 31.5 23.88 32.13M24.37 33.1c-0.18-0.27-0.31-0.52-0.42-0.78 -0.57-0.6-1.1-1.57-1.29-1.93 -4.37-8.27-4.13-5.07-10.2-9.9C9.27 17.96 6.43 5.37 15.56 7.07c10.6 1.97 3.65 9.03 7.68 12.97 6.18 6.06-0.5 8.29 0.77 12.25 0.23 0.27 0.47 0.48 0.71 0.53 -0.21-0.03-0.44-0.18-0.66-0.39C24.14 32.64 24.24 32.87 24.37 33.1z"/><path fill-rule="evenodd" clip-rule="evenodd" fill="#0A4670" d="M26.42 34.49c-0.12-0.32-0.12-0.28-0.35-0.41l-0.57-0.33 0.06-0.09 0.14-0.75c-0.41-0.62-1.35-1.26-1.99-1.68l-0.48 0.41 -0.08 0.17c0.22 0.38 0.05 0.28 0.35 0.65 0.27 0.34 0.54 0.67 0.67 1.05l0.26 0.18c0.49 0.16 0.51 0.07 0.99 0.24l0.05-0.08 0.26 0.13 0.08 0.36 0.33 0.11c-0.4 0.36-0.17 0.18-0.13 0.3 0.17-0.06 0.1-0.08 0.24-0.04 0.06 0.02 0.09 0.02 0.12 0.03 0-0.05 0.12 0.02 0 0 0 0.02 0.01 0.04 0.05 0.1l0.06 0.07 0.26-0.34L26.42 34.49z"/></svg>