<svg xmlns="http://www.w3.org/2000/svg" version="1.1" id="Layer_1" x="0" y="0" width="100" height="100" viewBox="0 0 100 100" enable-background="new 0 0 100 100" xml:space="preserve"><circle fill="#FFFFFF" stroke="#999999" stroke-miterlimit="10" cx="50" cy="50" r="49.5"/><path fill-rule="evenodd" clip-rule="evenodd" fill="#999999" d="M51.61 85.4l30.63-4.94 -8.67-10.24c-7.14 2.26-22.22 12.79-31.62 15.29 -2.81-2.59-11.79-13.12-13.6-15.96l-0.25-0.16c0.79 5.35 5.25 8.31 8.45 12.28C42.54 89.21 42.33 87.18 51.61 85.4"/><linearGradient id="SVGID_1_" gradientUnits="userSpaceOnUse" x1="28.34" y1="74.95" x2="81.9" y2="74.95"><stop offset="0" stop-color="#E0DDDD"/><stop offset="1" stop-color="#F5F5F5"/></linearGradient><path fill="url(#SVGID_1_)" stroke="#0E598F" stroke-width="0.57" stroke-miterlimit="22.93" d="M28.34 69.64c3.36-0.44 6.73-0.87 10.11-1.31 3.37-0.44 7.15-1.41 10.78-1.95 3.45-0.51 7.38-1.06 10.77-1.1 2.83-0.04 5.31-1.02 8.71-0.87 1.76 0.07 2.22 2.68 3.32 4 1.1 1.33 1.47 2.74 2.57 4.06 1.1 1.32 2.93 2.56 4.03 3.87 1.09 1.31 2.19 2.63 3.28 3.94 -3.37 0.91-6.65 0.88-9.97 1.32 -3.32 0.44-6.33 0.38-9.66 0.81 -3.33 0.44-6.98 1.39-10.32 1.83 -3.33 0.44-6.67 0.88-10.01 1.32 -0.56-0.65-1.13-1.31-1.69-1.96 -0.56-0.66-1.41-1.26-1.97-1.91 -1.06-1.24-2.12-2.4-3.13-3.58 -1.14-1.33-2.27-3.1-3.4-4.43C30.62 72.32 29.47 70.98 28.34 69.64z"/><path fill-rule="evenodd" clip-rule="evenodd" fill="#126AA9" d="M45.89 61.9c-2.44-7.18 8.99-12.28-2.38-21.97 -10-8.53 4.87-20.94-14.2-24.52 -15.03-2.82-8.58 18.65-4.2 22.19 11.78 9.52 11.88 5.17 18.8 20.73C44.2 59 44.98 60.68 45.89 61.9M46.84 63.78c-0.35-0.52-0.61-1.02-0.81-1.51 -1.11-1.16-2.14-3.04-2.51-3.75 -8.49-16.05-8.02-9.84-19.8-19.21 -6.18-4.92-11.71-29.35 6.03-26.05 20.58 3.82 7.09 17.52 14.91 25.18 12 11.76-0.97 16.1 1.49 23.77 0.44 0.53 0.91 0.93 1.37 1.03 -0.41-0.06-0.85-0.35-1.27-0.77C46.38 62.89 46.58 63.33 46.84 63.78z"/><path fill-rule="evenodd" clip-rule="evenodd" fill="#0A4670" d="M50.81 66.48c-0.23-0.63-0.24-0.54-0.69-0.8l-1.11-0.63 0.11-0.18 0.27-1.46c-0.8-1.2-2.62-2.44-3.87-3.27l-0.94 0.8 -0.16 0.33c0.42 0.74 0.09 0.55 0.67 1.25 0.52 0.66 1.06 1.31 1.3 2.04l0.5 0.35c0.94 0.3 0.99 0.14 1.92 0.46l0.1-0.15 0.5 0.24 0.14 0.7 0.65 0.21c-0.77 0.69-0.32 0.35-0.25 0.57 0.33-0.11 0.18-0.16 0.46-0.09 0.11 0.03 0.18 0.04 0.23 0.05 0.01-0.09 0.23 0.03 0 0 0 0.03 0.02 0.09 0.1 0.19l0.11 0.14 0.5-0.67L50.81 66.48z"/></svg>