<svg xmlns="http://www.w3.org/2000/svg" version="1.1" id="Layer_1" x="0px" y="0px" width="100px" height="100px" viewBox="0 0 100 100" enable-background="new 0 0 100 100" xml:space="preserve"><style>.s0{stop-color:#E0DDDD;}.s1{stop-color:#F5F5F5;}</style><circle fill="#FFFFFF" stroke="#999999" stroke-miterlimit="10" cx="50" cy="50" r="49.5"/><polygon fill="#126AA9" points="42.646,77.165 42.646,70.786 35.686,70.786 35.686,77.165 33.438,77.165 33.438,79.159   35.686,79.159 42.646,79.159 44.896,79.159 44.896,77.165 "/><polygon fill="#126AA9" points="64.699,59.382 64.699,53.003 57.738,53.003 57.738,59.382 55.49,59.382 55.49,61.376 57.738,61.376   64.699,61.376 66.949,61.376 66.949,59.382 "/><linearGradient id="SVGID_1_" gradientUnits="userSpaceOnUse" x1="18.875" y1="57.25" x2="60" y2="57.25"><stop offset="0" stop-color="#E0DDDD"/><stop offset="1" stop-color="#F5F5F5"/></linearGradient><rect x="18.875" y="44" fill="url(#SVGID_1_)" stroke="#126AA9" stroke-miterlimit="10" width="41.125" height="26.5"/><linearGradient id="SVGID_2_" gradientUnits="userSpaceOnUse" x1="40.917" y1="40.292" x2="82.042" y2="40.292"><stop offset="0" stop-color="#E0DDDD"/><stop offset="1" stop-color="#F5F5F5"/></linearGradient><rect x="40.917" y="27.042" fill="url(#SVGID_2_)" stroke="#126AA9" stroke-miterlimit="10" width="41.125" height="26.501"/></svg>